<?xml version="1.0" encoding="utf-8"?>
<!-- Generator: Adobe Illustrator 21.0.0, SVG Export Plug-In . SVG Version: 6.00 Build 0)  -->
<svg version="1.1" id="Capa_1" xmlns="http://www.w3.org/2000/svg" xmlns:xlink="http://www.w3.org/1999/xlink" x="0px" y="0px"
	 viewBox="0 0 120 120" style="enable-background:new 0 0 120 120;" xml:space="preserve">
<style type="text/css">
	.st0{fill:#DBDBDB;}
	.st1{fill:#FFFFFF;}
	.st2{fill:none;stroke:#333333;stroke-width:3;stroke-linecap:round;stroke-linejoin:round;stroke-miterlimit:10;}
	.st3{fill:#FFFFFF;stroke:#333333;stroke-width:3;stroke-linecap:round;stroke-linejoin:round;stroke-miterlimit:10;}
	.st4{fill:#333333;}
	.st5{fill:#F7F7F7;stroke:#333333;stroke-linecap:round;stroke-linejoin:round;stroke-miterlimit:10;}
	.st6{fill:none;stroke:#F7F7F7;stroke-width:2;stroke-linecap:round;stroke-linejoin:round;stroke-miterlimit:10;}
	.st7{fill:#E2AE8A;}
	.st8{fill:none;stroke:#333333;stroke-width:3;stroke-miterlimit:10;}
</style>
<circle class="st0" cx="60" cy="60" r="60"/>
<rect x="152" y="187" class="st1" width="0" height="2"/>
<line class="st2" x1="60.5" y1="64.1" x2="60.5" y2="72"/>
<g>
	<path class="st2" d="M99.1,36c1.2,2.2,2.1,4.8,2.4,7.2"/>
	<path class="st2" d="M82.7,18.8c5.5,2.2,10.1,6,13.2,10.7"/>
	<path class="st2" d="M63.2,79.8H52.1c-25.2,0-30.2-12.5-30.2-27.8v-2.3c0-15.3,13.6-27.8,30.2-27.8h11.1
		c16.5,0,30.2,12.5,30.2,27.8v2.2C93.3,67.1,85.6,79.8,63.2,79.8z"/>
	<path class="st3" d="M63.2,79.8H52.1c-25.2,0-30.2-12.5-30.2-27.8v-2.3c0-15.3,13.6-27.8,30.2-27.8h11.1
		c16.5,0,30.2,12.5,30.2,27.8v2.2C93.3,67.1,85.6,79.8,63.2,79.8z"/>
	<line class="st2" x1="21.9" y1="53.5" x2="21.9" y2="12.9"/>
	<circle class="st4" cx="20.4" cy="16.6" r="6.2"/>
	<path class="st4" d="M61.6,73.4h-8.4c-19.2,0-22.8-9.5-22.8-21.2v-1.8c0-11.6,10.3-21.2,22.8-21.2h8.4c12.6,0,22.8,9.5,22.8,21.2
		v1.8C84.4,63.9,78.6,73.4,61.6,73.4z"/>
	<path class="st5" d="M39.7,41.5c0,0-4.9-1-4.9,3.7s4.9,3.7,4.9,3.7"/>
	<path class="st5" d="M74.8,41.3c0,0,5.2-1.1,5.2,3.8s-5.2,3.8-5.2,3.8"/>
	<path class="st5" d="M47.5,55.7v6.7c0,4.2,3.5,7.7,7.9,7.7h4.2c4.2,0,7.9-3.5,7.9-7.7v-6.7c4.2,0,7.5-3.8,7.5-8.8v-1.6c0-5-4-9-9-9
		H49.6c-5,0-9,4-9,9v1.6C40,51.6,43.4,55.7,47.5,55.7z"/>
	<path class="st4" d="M55,47c0,1.4-1.1,2.5-2.5,2.5s-2.4-1.1-2.4-2.5h2.5l-1.9-1.8c0.4-0.6,1.1-0.6,1.8-0.6C53.8,44.5,55,45.6,55,47
		z"/>
	<path class="st4" d="M64.7,47c0,1.4-1.1,2.5-2.5,2.5c-1.3,0-2.5-1.1-2.5-2.5h2.5l-1.8-1.8c0.4-0.6,1.1-0.6,1.8-0.6
		C63.7,44.5,64.7,45.6,64.7,47z"/>
	<circle class="st4" cx="57.5" cy="61.4" r="3.9"/>
	<ellipse class="st4" cx="56.3" cy="54.2" rx="0.9" ry="0.9"/>
	<ellipse class="st4" cx="59.6" cy="54.2" rx="0.9" ry="0.9"/>
	<path class="st6" d="M60.6,36.5c0,0,0.4-1.2,1.6-2.2"/>
	<path class="st6" d="M56.9,36.7c0,0,0.7-2.4-0.9-4"/>
</g>
<g>
	<path class="st7" d="M15.1,66.1v45.5h84.6V66.1H15.1z M71,89.9H43.3c-2.3,0-4.1-1.5-4.1-3.3s1.9-3.3,4.1-3.3H71
		c2.3,0,4.1,1.5,4.1,3.3C75.2,88.4,73.3,89.9,71,89.9z"/>
</g>
<rect x="15.1" y="63.9" class="st8" width="89" height="49.6"/>
<path class="st8" d="M72.5,88.7h-29c-1.5,0-2.7-1.2-2.7-2.7v-1.8c0-1.5,1.2-2.7,2.7-2.7h29c1.5,0,2.7,1.2,2.7,2.7V86
	C75.3,87.5,74,88.7,72.5,88.7z"/>
</svg>
