<?xml version="1.0" encoding="utf-8"?>
<!-- Generator: Adobe Illustrator 21.1.0, SVG Export Plug-In . SVG Version: 6.00 Build 0)  -->
<svg version="1.1" id="Layer_1" xmlns="http://www.w3.org/2000/svg" xmlns:xlink="http://www.w3.org/1999/xlink" x="0px" y="0px"
	 viewBox="0 0 30 30" style="enable-background:new 0 0 30 30;" xml:space="preserve">
<style type="text/css">
	.st0{fill:none;stroke:#7A7A7A;stroke-linecap:round;stroke-linejoin:round;stroke-miterlimit:10;}
	.st1{fill:#7A7A7A;}
	.st2{fill:#FFFFFF;}
	.st3{fill:none;stroke:#FFFFFF;stroke-linecap:round;stroke-linejoin:round;}
	.st4{fill:#FFFFFF;stroke:#FFFFFF;stroke-linecap:round;stroke-linejoin:round;stroke-miterlimit:10;}
	.st5{opacity:0.11;enable-background:new    ;}
</style>
<g>
	<polyline class="st0" points="12.9,19.7 3.4,13.3 7.9,10.3 	"/>
	<polyline class="st0" points="22.3,10.3 26.8,13.3 17.3,19.7 	"/>
</g>
<path class="st1" d="M6.3,22.2l0.8,0.6l-0.5,0.6c0.3,0.4,0.5,0.8,0.5,1.3S6.9,26,6.2,26.3c0.7,0.4,0.9,0.9,0.9,1.5
	c0,1.2-0.9,2-2.2,2s-2.2-0.8-2.2-2h1.1c0,0.6,0.5,0.9,1.1,0.9S6,28.4,6,27.8s-0.6-0.9-1.1-0.9c-1.4,0-2.2-0.8-2.2-2.2
	c0-1.4,1-2.2,2.2-2.2c0.3,0,0.7,0,1,0.2L6.3,22.2z M3.7,24.7c0,0.8,0.5,1.2,1.1,1.2s1.1-0.5,1.1-1.2s-0.5-1.2-1.1-1.2
	C4.3,23.5,3.7,23.9,3.7,24.7z M11.6,26.5c-0.5,0.5-1,0.7-1.7,0.7c-1.3,0-2.3-0.8-2.3-2.3c0-1.6,1.1-2.3,2.3-2.3
	c0.6,0,1.1,0.2,1.6,0.7L10.8,24c-0.3-0.2-0.6-0.3-0.9-0.3c-0.7,0-1.3,0.5-1.3,1.3s0.6,1.3,1.2,1.3c0.3,0,0.7-0.1,1-0.4L11.6,26.5z
	 M16.5,24.8c0,1.3-0.9,2.3-2.3,2.3s-2.3-1-2.3-2.3s0.9-2.3,2.3-2.3S16.5,23.6,16.5,24.8z M13,24.8c0,0.7,0.4,1.3,1.2,1.3
	s1.2-0.6,1.2-1.3c0-0.7-0.5-1.3-1.2-1.3C13.4,23.5,13,24.2,13,24.8z M21.8,20.8V27h-1l-0.1-0.6c-0.3,0.5-0.9,0.7-1.4,0.7
	c-1.3,0-2.3-0.9-2.3-2.3c0-1.5,1-2.3,2.2-2.3c0.5,0,1.2,0.2,1.4,0.7v-2.4C20.6,20.8,21.8,20.8,21.8,20.8z M18.1,24.8
	c0,0.8,0.6,1.3,1.2,1.3c0.7,0,1.3-0.5,1.3-1.3s-0.6-1.3-1.3-1.3C18.7,23.5,18.1,24,18.1,24.8z M23.8,25.2c0.1,0.5,0.5,0.9,1.3,0.9
	c0.4,0,0.9-0.2,1.2-0.4l0.7,0.7c-0.5,0.5-1.2,0.7-1.9,0.7c-1.5,0-2.4-0.9-2.4-2.3c0-1.3,0.9-2.3,2.3-2.3c1.5,0,2.4,0.9,2.2,2.7
	C27.2,25.2,23.8,25.2,23.8,25.2z M26.1,24.3c-0.1-0.6-0.5-0.9-1.1-0.9s-1.1,0.3-1.2,0.9H26.1z"/>
<polyline class="st0" points="8.1,8.5 15,13.3 22.2,8.3 "/>
<g>
	<line class="st0" x1="22.3" y1="11.1" x2="22.3" y2="5.8"/>
	<line class="st0" x1="7.9" y1="11.1" x2="7.9" y2="5.8"/>
	<polygon class="st0" points="7.9,5.8 15.1,1 22.3,5.8 15.1,10.6 	"/>
	<g>
		<g>
			<line class="st0" x1="12.6" y1="8.9" x2="19.8" y2="4.1"/>
			<line class="st0" x1="10.2" y1="7.3" x2="17.4" y2="2.5"/>
			<line class="st0" x1="12.8" y1="2.5" x2="20" y2="7.3"/>
			<line class="st0" x1="10.4" y1="4.1" x2="17.6" y2="8.9"/>
		</g>
	</g>
	<line class="st0" x1="15.1" y1="10.6" x2="15.1" y2="16"/>
</g>
<g>
	<polyline class="st2" points="7.9,11.1 7.9,13.1 15.1,18 15.1,15.9 7.9,11.1 	"/>
	<polyline class="st3" points="7.9,11.1 7.9,13.1 15.1,18 15.1,15.9 7.9,11.1 	"/>
</g>
<polyline class="st4" points="22.3,11.1 22.3,13.1 15.1,18 15.1,15.9 22.3,11.1 "/>
<path class="st5" d="M22.8,13.2c0,0.1-0.1,0.3-0.2,0.3c-0.8,0.5-4.5,3.1-6.1,4.2c-0.1,0.1-1,0.7-1,0.7c-0.2,0.2-0.4,0.1-0.4,0.1
	v-3.2l7-4.7c0.3-0.2,0.7,0.1,0.7,0.4V13.2z"/>
<polygon class="st2" points="8.8,11.1 7.4,10.1 7.4,11.1 "/>
<polygon class="st2" points="21.4,11.1 22.8,10.1 22.8,11.1 "/>
<polygon class="st5" points="21.4,11.1 22.8,10.1 22.8,11.1 "/>
</svg>
