<?xml version="1.0" encoding="utf-8"?>
<!-- Generator: Adobe Illustrator 21.1.0, SVG Export Plug-In . SVG Version: 6.00 Build 0)  -->
<svg version="1.1" id="Layer_1" xmlns="http://www.w3.org/2000/svg" xmlns:xlink="http://www.w3.org/1999/xlink" x="0px" y="0px"
	 viewBox="0 0 36 35" style="enable-background:new 0 0 36 35;" xml:space="preserve">
<style type="text/css">
	.st0{fill:none;}
	.st1{fill:#333333;}
	.st2{fill:#F05151;stroke:#F05151;stroke-width:4;stroke-linecap:round;stroke-linejoin:round;stroke-miterlimit:10;}
	.st3{fill:#333333;fill-opacity:0.2;}
	.st4{fill:url(#SVGID_1_);fill-opacity:0.2;}
	.st5{fill:#F05151;}
</style>
<pattern  y="4" width="6" height="4" patternUnits="userSpaceOnUse" id="SVGID_1_" viewBox="0.5 -4.5 6 4" style="overflow:visible;">
	<g>
		<rect x="0.5" y="-4.5" class="st0" width="6" height="4"/>
		<g>
			<rect x="0.5" y="-4.5" class="st0" width="6" height="4"/>
			<circle class="st1" cx="5" cy="-4.5" r="0.5"/>
			<circle class="st1" cx="2" cy="-4.5" r="0.5"/>
			<circle class="st1" cx="6.5" cy="-2.5" r="0.5"/>
			<circle class="st1" cx="3.5" cy="-2.5" r="0.5"/>
			<circle class="st1" cx="0.5" cy="-2.5" r="0.5"/>
			<circle class="st1" cx="5" cy="-0.5" r="0.5"/>
			<circle class="st1" cx="2" cy="-0.5" r="0.5"/>
		</g>
	</g>
</pattern>
<g>
	<polygon class="st2" points="18.2,2 3.5,2 3.5,18.6 11.8,23.3 18.2,23.3 24.9,23.3 33,18.6 33,2 	"/>
	<polygon class="st3" points="18.2,22.7 24.4,22.7 31.8,18.4 31.8,3.1 17.1,3.1 	"/>
	<polygon class="st4" points="24.6,22.7 31.8,18.4 31.8,3.1 18.6,3.1 	"/>
	<polyline class="st2" points="24.9,23.3 24.9,28.9 18.3,33 11.8,28.9 11.8,23.3 	"/>
	<polygon class="st3" points="18.3,33 24.9,28.9 24.9,23.3 18.4,23.3 	"/>
</g>
<path class="st5" d="M32,17.1c0,0-2,0.8-6.3,2.2c-4,1.3-8.9,2.9-8.9,2.9l-0.5,1.1L25,23l7-3.5V17.1z"/>
</svg>
