<?xml version="1.0" encoding="utf-8"?>
<!-- Generator: Adobe Illustrator 22.1.0, SVG Export Plug-In . SVG Version: 6.00 Build 0)  -->
<svg version="1.1" id="Layer_1" xmlns="http://www.w3.org/2000/svg" xmlns:xlink="http://www.w3.org/1999/xlink" x="0px" y="0px"
	 viewBox="0 0 40 40" style="enable-background:new 0 0 40 40;" xml:space="preserve">
<style type="text/css">
	.st0{opacity:0.2;}
	.st1{fill:#4DD1B1;}
</style>
<g class="st0">
	<path class="st1" d="M36.7,17.9C32.2,13.4,26.3,11,20,11S7.8,13.5,3.3,17.9L0,14.6c5.3-5.3,12.4-8.3,20-8.3s14.7,2.9,20,8.3
		L36.7,17.9z"/>
</g>
<path class="st1" d="M20,33.7l5.8-5.5c-1.4-1.6-3.4-2.7-5.8-2.7c-2.3,0-4.4,1.1-5.8,2.7L20,33.7z"/>
<g class="st0">
	<path class="st1" d="M33,21.3c-0.8-0.8-1.6-1.4-2.5-2c-3-2.1-6.6-3.2-10.4-3.2c-3.7,0-7.2,1.1-10.2,3.1c-1,0.7-1.9,1.4-2.8,2.3
		c0,0,3.4,3.3,3.4,3.2c2.6-2.5,6-3.9,9.6-3.9s6.9,1.4,9.5,3.8C29.7,24.6,33.1,21.3,33,21.3z"/>
</g>
</svg>
