<?xml version="1.0" encoding="utf-8"?>
<!-- Generator: Adobe Illustrator 21.1.0, SVG Export Plug-In . SVG Version: 6.00 Build 0)  -->
<svg version="1.1" id="Layer_1" xmlns="http://www.w3.org/2000/svg" xmlns:xlink="http://www.w3.org/1999/xlink" x="0px" y="0px"
	 viewBox="0 0 36 35" style="enable-background:new 0 0 36 35;" xml:space="preserve">
<style type="text/css">
	.st0{fill:none;}
	.st1{clip-path:url(#SVGID_2_);}
	.st2{fill:#333333;}
	.st3{fill:#6DC8C2;stroke:#6DC8C2;stroke-width:4;stroke-linecap:round;stroke-linejoin:round;stroke-miterlimit:10;}
	.st4{fill:#333333;fill-opacity:0.2;}
	.st5{fill:url(#SVGID_3_);fill-opacity:0.2;}
	.st6{fill:#6DC8C2;}
</style>
<pattern  y="35" width="6" height="4" patternUnits="userSpaceOnUse" id="SVGID_2" viewBox="0.5 -4.5 6 4" style="overflow:visible;">
	<g>
		<rect x="0.5" y="-4.5" class="st0" width="6" height="4"/>
		<g>
			<defs>
				<rect id="SVGID_1_" x="0.5" y="-4.5" width="6" height="4"/>
			</defs>
			<clipPath id="SVGID_2_">
				<use xlink:href="#SVGID_1_"  style="overflow:visible;"/>
			</clipPath>
			<g class="st1">
				<circle class="st2" cx="5" cy="-0.5" r="0.5"/>
				<circle class="st2" cx="2" cy="-0.5" r="0.5"/>
				<circle class="st2" cx="6.5" cy="-2.5" r="0.5"/>
				<circle class="st2" cx="3.5" cy="-2.5" r="0.5"/>
				<circle class="st2" cx="0.5" cy="-2.5" r="0.5"/>
				<circle class="st2" cx="5" cy="-4.5" r="0.5"/>
				<circle class="st2" cx="2" cy="-4.5" r="0.5"/>
			</g>
		</g>
	</g>
</pattern>
<g>
	<polygon class="st3" points="18,2 3.2,2 3.2,18.6 11.6,23.3 18,23.3 24.6,23.3 32.8,18.6 32.8,2 	"/>
	<polygon class="st4" points="18,22.7 24.1,22.7 31.5,18.4 31.5,3.1 16.9,3.1 	"/>
	<polyline class="st3" points="24.6,23.3 24.6,28.9 18,33 11.6,28.9 11.6,23.3 	"/>
	<polygon class="st4" points="18,33 24.6,28.9 24.6,23.3 18.1,23.3 	"/>
</g>
<pattern  id="SVGID_3_" xlink:href="#SVGID_2" patternTransform="matrix(1 0 0 -1 1.5 -14225.5)">
</pattern>
<polygon class="st5" points="24.4,22.7 31.5,18.4 31.5,3.1 18.4,3.1 "/>
<path class="st6" d="M32,17.1c0,0-2,0.8-6.3,2.2c-4,1.3-8.9,2.9-8.9,2.9l-0.5,1.1L25,23l7-3.5V17.1z"/>
</svg>
