<?xml version="1.0" encoding="utf-8"?>
<!-- Generator: Adobe Illustrator 21.1.0, SVG Export Plug-In . SVG Version: 6.00 Build 0)  -->
<svg version="1.1" id="Layer_1" xmlns="http://www.w3.org/2000/svg" xmlns:xlink="http://www.w3.org/1999/xlink" x="0px" y="0px"
	 viewBox="0 0 53.4 21.7" style="enable-background:new 0 0 53.4 21.7;" xml:space="preserve">
<style type="text/css">
	.st0{fill:none;}
	.st1{fill:#333333;}
	.st2{fill:url(#SVGID_1_);fill-opacity:0.7;}
	
		.st3{fill:#333333;fill-opacity:0.2;stroke:#333333;stroke-width:2;stroke-linecap:round;stroke-linejoin:round;stroke-miterlimit:10;}
</style>
<pattern  y="21.7" width="6" height="4" patternUnits="userSpaceOnUse" id="SVGID_2_" viewBox="0.5 -4.5 6 4" style="overflow:visible;">
	<g>
		<rect x="0.5" y="-4.5" class="st0" width="6" height="4"/>
		<g>
			<rect x="0.5" y="-4.5" class="st0" width="6" height="4"/>
			<g>
				<rect x="0.5" y="-4.5" class="st0" width="6" height="4"/>
				<circle class="st1" cx="5" cy="-0.5" r="0.5"/>
				<circle class="st1" cx="2" cy="-0.5" r="0.5"/>
				<circle class="st1" cx="6.5" cy="-2.5" r="0.5"/>
				<circle class="st1" cx="3.5" cy="-2.5" r="0.5"/>
				<circle class="st1" cx="0.5" cy="-2.5" r="0.5"/>
				<circle class="st1" cx="5" cy="-4.5" r="0.5"/>
				<circle class="st1" cx="2" cy="-4.5" r="0.5"/>
			</g>
		</g>
	</g>
</pattern>
<g>
	<pattern  id="SVGID_1_" xlink:href="#SVGID_2_" patternTransform="matrix(1 0 0 1 -9 16385.3008)">
	</pattern>
	<polygon class="st2" points="11.4,1.6 12.2,0.9 40.4,0.9 52.3,12.9 43.2,12.9 	"/>
	<polygon class="st3" points="52.3,12.9 1.3,12.9 12.2,0.9 40.4,0.9 	"/>
	<rect x="1.3" y="12.9" class="st3" width="51" height="6.3"/>
</g>
</svg>
