<?xml version="1.0" encoding="utf-8"?>
<!-- Generator: Adobe Illustrator 21.1.0, SVG Export Plug-In . SVG Version: 6.00 Build 0)  -->
<svg version="1.1" id="Layer_1" xmlns="http://www.w3.org/2000/svg" xmlns:xlink="http://www.w3.org/1999/xlink" x="0px" y="0px"
	 viewBox="0 0 36 33" style="enable-background:new 0 0 36 33;" xml:space="preserve">
<style type="text/css">
	.st0{fill:none;}
	.st1{fill:#333333;}
	.st2{fill:none;stroke:#333333;stroke-width:2.4;stroke-linecap:round;stroke-linejoin:round;stroke-miterlimit:10;}
	.st3{fill:#333333;fill-opacity:0.2;}
	.st4{fill:url(#SVGID_2_);fill-opacity:0.2;}
</style>
<pattern  y="33" width="6" height="4" patternUnits="userSpaceOnUse" id="SVGID_1_" viewBox="0.5 -4.5 6 4" style="overflow:visible;">
	<g>
		<rect x="0.5" y="-4.5" class="st0" width="6" height="4"/>
		<g>
			<rect x="0.5" y="-4.5" class="st0" width="6" height="4"/>
			<g>
				<rect x="0.5" y="-4.5" class="st0" width="6" height="4"/>
				<circle class="st1" cx="5" cy="-0.5" r="0.5"/>
				<circle class="st1" cx="2" cy="-0.5" r="0.5"/>
				<circle class="st1" cx="6.5" cy="-2.5" r="0.5"/>
				<circle class="st1" cx="3.5" cy="-2.5" r="0.5"/>
				<circle class="st1" cx="0.5" cy="-2.5" r="0.5"/>
				<circle class="st1" cx="5" cy="-4.5" r="0.5"/>
				<circle class="st1" cx="2" cy="-4.5" r="0.5"/>
			</g>
		</g>
	</g>
</pattern>
<g>
	<polygon class="st2" points="18.2,1 3.5,1 3.5,18.2 10.4,22.9 18.2,22.9 26.2,22.9 33,18.2 33,1 	"/>
	<polygon class="st3" points="18.2,22.3 25.8,22.3 31.8,18 31.8,2.1 11,2.1 	"/>
	<pattern  id="SVGID_2_" xlink:href="#SVGID_1_" patternTransform="matrix(1 0 0 -1 0.5 -16011.5)">
	</pattern>
	<polygon class="st4" points="26,22.3 31.8,18 31.8,2.1 18.6,2.1 	"/>
	<polyline class="st2" points="26.2,22.9 26.2,27.9 18.3,32 10.4,27.9 10.4,22.9 	"/>
	<polygon class="st3" points="18.3,32 26.2,27.9 26.2,22.9 18.4,22.9 	"/>
</g>
</svg>
