<?xml version="1.0" encoding="utf-8"?>
<!-- Generator: Adobe Illustrator 21.0.0, SVG Export Plug-In . SVG Version: 6.00 Build 0)  -->
<svg version="1.1" id="Capa_1" xmlns="http://www.w3.org/2000/svg" xmlns:xlink="http://www.w3.org/1999/xlink" x="0px" y="0px"
	 viewBox="0 0 200 90" style="enable-background:new 0 0 200 90;" xml:space="preserve">
<style type="text/css">
	.st0{opacity:0.13;fill:#6DC8C2;enable-background:new    ;}
	.st1{fill:none;stroke:#6DC8C2;stroke-linecap:round;stroke-linejoin:round;stroke-miterlimit:10;}
	.st2{fill:none;stroke:#EE5252;stroke-linecap:round;stroke-miterlimit:10;}
	.st3{fill:none;stroke:#FFCD6D;stroke-linecap:round;stroke-linejoin:round;stroke-miterlimit:10;}
	.st4{fill:none;stroke:#EE5252;stroke-miterlimit:10;}
	.st5{fill:#6DC8C2;}
	.st6{fill:none;stroke:#333333;stroke-linecap:round;stroke-linejoin:round;stroke-miterlimit:10;}
	.st7{fill:none;stroke:#333333;stroke-linecap:round;stroke-miterlimit:10;stroke-dasharray:3,3;}
	.st8{opacity:0.38;fill:#6ACEC4;enable-background:new    ;}
	.st9{fill:#333333;}
</style>
<path class="st0" d="M5.5,87.7c15.9-23.1,68.4-33.3,95-33.3c25.9,0,78.5,11.7,93.5,33.3H5.5z"/>
<g>
	<line class="st1" x1="149.9" y1="40.1" x2="151.1" y2="41.6"/>
	<line class="st1" x1="149.7" y1="41.3" x2="151.3" y2="40.3"/>
</g>
<polygon class="st2" points="160,57.3 159.4,58.2 159.4,59.3 158.6,58.7 157.6,58.7 158.1,57.9 158.3,56.8 159,57.3 "/>
<ellipse transform="matrix(0.48 -0.8773 0.8773 0.48 -26.7434 61.0099)" class="st2" cx="38.1" cy="53.1" rx="1.1" ry="1.1"/>
<g>
	<line class="st3" x1="53.9" y1="49.5" x2="54.9" y2="51"/>
	<line class="st3" x1="53.5" y1="50.8" x2="55.1" y2="49.9"/>
</g>
<polygon class="st3" points="135.1,13.2 134.1,13 133,13.2 133.4,12.4 133.2,11.3 134.1,11.6 135.1,11.3 134.8,12.4 "/>
<circle class="st4" cx="155.9" cy="14.4" r="0.9"/>
<ellipse transform="matrix(0.6601 -0.7512 0.7512 0.6601 8.2402 117.2785)" class="st2" cx="133.7" cy="49.5" rx="1.3" ry="1.3"/>
<path class="st5" d="M102.5,30.1c0,0,3.4-5.4,8.5-4.5c4.6,0.8,5.1,6,5.7,7.6"/>
<path class="st5" d="M121.4,36.1c-0.3,1.4-6,1.7-12.6,0.5S97,33.3,97.2,31.8c0.3-1.4,6-1.7,12.6-0.5
	C116.5,32.4,121.6,34.6,121.4,36.1z"/>
<path class="st6" d="M101.1,30.1c0,0,3.3-6,8.5-5c4.6,0.8,5.1,5.9,5.9,7.5"/>
<path class="st7" d="M87.2,73.4c0-1.1,7.3-2,11.5-2s10.4,0.9,10.4,2"/>
<path class="st8" d="M112,36.7l-3.3,36.1c0,1.1-6.5,2.7-11,2.7S85.6,74,85.6,72.8L102,34.6c0,0,3.3,1,5.1,1.4
	C109.2,36.5,112,36.7,112,36.7z"/>
<path class="st6" d="M109.2,73.4c0,1.1-5.5,2.7-10.4,2.7c-5.4,0-11.5-1.5-11.5-2.7"/>
<g>
	<g>
		<line class="st6" x1="107.4" y1="36.4" x2="107" y2="38.1"/>
		<line class="st6" x1="106.6" y1="39.9" x2="106.2" y2="41.7"/>
	</g>
	<g>
		<line class="st6" x1="110.4" y1="36.9" x2="110.2" y2="38.7"/>
		<line class="st6" x1="110" y1="40.4" x2="109.8" y2="42.2"/>
		<line class="st6" x1="109.5" y1="44" x2="109.3" y2="47.1"/>
	</g>
	<g>
		<line class="st6" x1="104.2" y1="36" x2="103.7" y2="37.6"/>
		<line class="st6" x1="103.2" y1="39.4" x2="102.7" y2="41.1"/>
		<line class="st6" x1="102.1" y1="42.9" x2="101.1" y2="45.9"/>
		<line class="st6" x1="100.5" y1="48.1" x2="100" y2="49.7"/>
	</g>
</g>
<g>
	<polyline class="st6" points="96.5,64.6 96,66.3 97.6,66.9 	"/>
	<path class="st6" d="M96.5,64.6L96.5,64.6c0,0,1.1,2.2,1,2.2l-1,2.8l-3.3-1.1l1.5-4.5L96.5,64.6"/>
</g>
<g>
	<polyline class="st6" points="105.3,47.2 105.2,49 103.4,48.7 	"/>
	<path class="st6" d="M105.3,47.2L105.3,47.2l-1.9,1.5l-0.4,3.1l3.4,0.4l0.5-4.7L105.3,47.2"/>
</g>
<g>
	<polyline class="st6" points="103.2,60.3 103.7,62 101.9,62.5 	"/>
	<path class="st6" d="M103.2,60.3L103.2,60.3l-1.3,2.2l0.8,2.9l3.3-0.9l-1.3-4.6L103.2,60.3"/>
</g>
<g>
	<polyline class="st6" points="99.2,59.8 98.3,58.3 100,57.4 	"/>
	<path class="st6" d="M99.2,59.8L99.2,59.8l0.7-2.4l-1.4-2.7l-3,1.6l2.3,4.2L99.2,59.8"/>
</g>
<path class="st6" d="M120.6,35.4c-0.3,1-6.1,0.8-13.2-0.6c-7.1-1.4-12.5-3.4-12.4-4.4c0.3-1,6.1-0.8,13.2,0.6
	C115.3,32.4,120.9,34.4,120.6,35.4z"/>
<path class="st6" d="M108.8,32.8c-0.9-0.3-1.9-0.4-2.8-0.5c-2.8-0.5-5.4-0.8-7.5-1"/>
<line class="st6" x1="112.3" y1="26" x2="114.9" y2="23.2"/>
<ellipse transform="matrix(0.4384 -0.8988 0.8988 0.4384 43.8836 116.2824)" class="st9" cx="115" cy="23" rx="0.9" ry="0.9"/>
<line class="st6" x1="107.4" y1="25" x2="107.2" y2="21.3"/>
<ellipse transform="matrix(0.9601 -0.2795 0.2795 0.9601 -1.6265 30.8062)" class="st9" cx="107.2" cy="21.1" rx="0.9" ry="0.9"/>
<g>
	<ellipse transform="matrix(0.969 -0.247 0.247 0.969 -6.1596 17.1067)" class="st6" cx="65.1" cy="33.1" rx="3.2" ry="3.2"/>
	<path class="st6" d="M64.2,34.2c-0.3,0-0.5-0.1-0.8-0.3"/>
	<path class="st6" d="M67,32.3c0.3,1.1-0.4,2.2-1.4,2.4"/>
	<path class="st6" d="M64.5,37.7c-0.8-0.1-1.4-0.3-2-0.6"/>
	<path class="st6" d="M67,29.1c1.4,0.5,2.4,1.7,2.8,3.1c0.6,2.4-0.9,4.8-3.2,5.5"/>
	<line class="st6" x1="63.3" y1="30.4" x2="53.4" y2="16.4"/>
	<line class="st6" x1="62.2" y1="31.8" x2="45.5" y2="17.3"/>
	<line class="st6" x1="61.9" y1="32.8" x2="45.9" y2="26.6"/>
</g>
<ellipse transform="matrix(0.3528 -0.9357 0.9357 0.3528 34.5779 93.8313)" class="st1" cx="85.1" cy="21.9" rx="0.5" ry="0.5"/>
<g>
	<line class="st1" x1="90.1" y1="7.9" x2="91.1" y2="10.2"/>
	<line class="st1" x1="89.5" y1="9.6" x2="91.8" y2="8.6"/>
</g>
<g>
	<path class="st6" d="M134.8,65.8c0,0,1.3,3.8,3.2,3.8"/>
	<path class="st6" d="M134.8,69.2c0,0,1.3,3.8,3.2,3.8"/>
	<path class="st6" d="M134.8,65.8c0,0-1.3,3.8-3.2,3.8"/>
	<path class="st6" d="M134.8,69.2c0,0-1.3,3.8-3.2,3.8"/>
	<line class="st6" x1="134.8" y1="76" x2="134.8" y2="65.8"/>
</g>
<g>
	<path class="st6" d="M57.2,66.3c0,0,1.3,3.8,3.2,3.8"/>
	<path class="st6" d="M57.2,69.7c0,0,1.3,3.8,3.2,3.8"/>
	<path class="st6" d="M57.2,66.3c0,0-1.3,3.8-3.2,3.8"/>
	<path class="st6" d="M57.2,69.7c0,0-1.3,3.8-3.2,3.8"/>
	<line class="st6" x1="57.2" y1="76.6" x2="57.2" y2="66.3"/>
</g>
<g>
	<path class="st6" d="M70,71.4c0,0,1.3,3.8,3.2,3.8"/>
	<path class="st6" d="M70,74.8c0,0,1.3,3.8,3.2,3.8"/>
	<path class="st6" d="M70,71.4c0,0-1.3,3.8-3.2,3.8"/>
	<path class="st6" d="M70,74.8c0,0-1.3,3.8-3.2,3.8"/>
	<line class="st6" x1="70" y1="81.6" x2="70" y2="71.4"/>
</g>
</svg>
