<?xml version="1.0" encoding="utf-8"?>
<!-- Generator: Adobe Illustrator 21.0.0, SVG Export Plug-In . SVG Version: 6.00 Build 0)  -->
<svg version="1.1" id="Capa_1" xmlns="http://www.w3.org/2000/svg" xmlns:xlink="http://www.w3.org/1999/xlink" x="0px" y="0px"
	 viewBox="0 0 200 90" style="enable-background:new 0 0 200 90;" xml:space="preserve">
<style type="text/css">
	.st0{opacity:0.46;fill:#EE5252;}
	.st1{fill:#EE5252;}
	.st2{fill:none;stroke:#EE5252;stroke-linecap:round;stroke-linejoin:round;stroke-miterlimit:10;}
	.st3{opacity:0.41;fill:#EE5252;}
	.st4{fill:none;stroke:#EE5252;stroke-linejoin:round;stroke-miterlimit:10;}
	.st5{fill:none;stroke:#EE5252;stroke-linecap:round;stroke-miterlimit:10;}
	
		.st6{fill:none;stroke:#EE5252;stroke-linecap:round;stroke-linejoin:round;stroke-miterlimit:10;stroke-dasharray:4.1598,8.3196,4.1598,8.3196;}
	.st7{fill:none;stroke:#EE5252;stroke-linecap:round;stroke-miterlimit:10;stroke-dasharray:12.4795,12.4795,12.4795,12.4795;}
	.st8{fill:none;stroke:#EE5252;stroke-miterlimit:10;stroke-dasharray:12.4795,12.4795,12.4795,12.4795;}
	.st9{fill:#EF5353;}
	.st10{fill:none;stroke:#EF5353;stroke-miterlimit:10;}
	.st11{fill:none;stroke:#EE5252;stroke-linecap:round;stroke-linejoin:round;stroke-dasharray:4.1598,8.3196,4.1598,8.3196;}
	.st12{opacity:0.31;fill:none;stroke:#EE5252;stroke-linecap:round;stroke-miterlimit:10;}
	.st13{fill:none;stroke:#EE5252;stroke-linecap:round;stroke-miterlimit:10;stroke-dasharray:2,2,2;}
	.st14{fill:none;stroke:#6DC8C2;stroke-linecap:round;stroke-linejoin:round;stroke-miterlimit:10;}
	.st15{fill:none;stroke:#FFCD6D;stroke-linecap:round;stroke-linejoin:round;stroke-miterlimit:10;}
	.st16{fill:none;stroke:#EE5252;stroke-miterlimit:10;}
</style>
<circle class="st0" cx="163" cy="35.7" r="10.6"/>
<path class="st1" d="M165.7,43h-11.6c-0.2,0-0.4-0.2-0.4-0.4v-1.2c0-0.2,0.2-0.4,0.4-0.4h11.6c0.2,0,0.4,0.2,0.4,0.4v1.2
	C166.2,42.8,166,43,165.7,43z"/>
<path class="st1" d="M174.2,34.5h-11.6c-0.2,0-0.4-0.2-0.4-0.4v-1.2c0-0.2,0.2-0.4,0.4-0.4h11.6c0.2,0,0.4,0.2,0.4,0.4v1.2
	C174.6,34.3,174.4,34.5,174.2,34.5z"/>
<path class="st1" d="M175.2,37.9h-23.7c-0.2,0-0.4-0.2-0.4-0.4v-1.2c0-0.2,0.2-0.4,0.4-0.4h23.7c0.2,0,0.4,0.2,0.4,0.4v1.2
	C175.6,37.7,175.4,37.9,175.2,37.9z"/>
<polygon class="st2" points="454,52.2 452.9,51.8 451.9,52.1 452.2,51.1 451.9,50 452.9,50.4 454,50.1 453.7,51.1 "/>
<path class="st2" d="M311.2,80.8c1.6,2.1,2.1,2.8-0.4,4.6c-0.9,0.7-3.4,0.9-4.8,0.6c-1.2-0.2-1.3-1-2.1-1.6c-2.4-1.5-1-2.5,0.7-3.7
	c1-0.7,2.2-1.4,3.5-0.9C309,80.2,310.3,79.7,311.2,80.8z"/>
<path class="st0" d="M311.2,80.1c1.6,2.1,2.1,2.8-0.4,4.6c-0.9,0.7-3.4,0.9-4.8,0.6c-1.2-0.2-1.3-1-2.1-1.6c-2.4-1.5-1-2.5,0.7-3.7
	c1-0.7,2.2-1.4,3.5-0.9C309,79.5,310.3,79,311.2,80.1z"/>
<g>
	<ellipse transform="matrix(0.9805 -0.1963 0.1963 0.9805 -4.1673 56.0125)" class="st1" cx="280.5" cy="49" rx="0.6" ry="0.6"/>
	<ellipse transform="matrix(0.9805 -0.1963 0.1963 0.9805 -2.5961 57.5904)" class="st1" cx="289.2" cy="41.9" rx="0.6" ry="0.6"/>
	<polygon class="st2" points="286.6,65.1 287.2,66 288.1,66.6 287.2,67.1 286.6,68 286.1,67.1 285.1,66.6 286.1,66 	"/>
</g>
<path class="st1" d="M307.6,81.4c0,0.2-0.9,0.9-1.4,0.9s-0.8-0.2-0.8-0.4s0.4-0.4,0.8-0.4S307.6,81.2,307.6,81.4z"/>
<path class="st1" d="M310.7,83.9c0,0.4-1,0.3-1.7,0.7c-0.4,0.2-1.1,0.4-1.7-0.7c-0.2-0.3,0.8-0.7,1.7-0.7
	C309.9,83.2,310.7,83.5,310.7,83.9z"/>
<line class="st2" x1="287.4" y1="78.5" x2="285.3" y2="78.5"/>
<line class="st2" x1="306.2" y1="78.5" x2="288.7" y2="78.5"/>
<path class="st2" d="M307.8,78.5h0.6c1.6,0,3.2,0.6,4.3,1.6c2.1,1.9,1.8,4.7-0.6,6.3"/>
<path class="st2" d="M310.3,87.4c-0.6,0.2-1.2,0.3-1.8,0.3"/>
<line class="st2" x1="303.4" y1="86" x2="295.2" y2="86"/>
<line class="st2" x1="292" y1="86" x2="290.7" y2="86"/>
<line class="st2" x1="289.6" y1="86" x2="281.4" y2="86"/>
<path class="st2" d="M293.6,86"/>
<line class="st2" x1="294.2" y1="86" x2="293.6" y2="86"/>
<line class="st2" x1="277.7" y1="82.9" x2="275.3" y2="82.9"/>
<line class="st2" x1="292.1" y1="82.9" x2="278.7" y2="82.9"/>
<path class="st2" d="M293.6,82.9"/>
<polyline class="st2" points="293.6,82.9 294.1,82.9 295.1,82.9 300.7,82.9 "/>
<line class="st2" x1="302" y1="81.3" x2="295.2" y2="81.3"/>
<line class="st2" x1="288.5" y1="81.3" x2="278.5" y2="81.3"/>
<path class="st2" d="M293.6,81.4"/>
<line class="st2" x1="293.4" y1="81.3" x2="290.3" y2="81.3"/>
<line class="st2" x1="289.9" y1="79.8" x2="285.1" y2="79.8"/>
<line class="st2" x1="283.7" y1="79.8" x2="281.6" y2="79.8"/>
<path class="st2" d="M293.6,79.8"/>
<polyline class="st2" points="291.4,79.8 294.2,79.8 295.6,79.8 303.4,79.8 "/>
<path class="st2" d="M308.5,87.7h-23.8H308.5z"/>
<g>
	<ellipse transform="matrix(0.1897 -0.9818 0.9818 0.1897 286.4207 479.1367)" class="st2" cx="433.5" cy="66" rx="1.9" ry="12"/>
	<ellipse transform="matrix(0.1897 -0.9818 0.9818 0.1897 286.5757 481.2698)" class="st3" cx="434.9" cy="67" rx="2.6" ry="11.3"/>
	<path class="st2" d="M425.6,64.2c-0.6,0-1.2,0-1.7,0"/>
	<path class="st2" d="M436.2,65.8c-0.8-0.2-1.7-0.4-2.6-0.5c-2.5-0.5-4.9-0.8-6.9-1"/>
	<line class="st2" x1="432.9" y1="70.7" x2="432.4" y2="72.9"/>
	<line class="st2" x1="432" y1="75.1" x2="431.6" y2="77.3"/>
	<line class="st2" x1="431.2" y1="79.5" x2="430.4" y2="83.3"/>
	<line class="st2" x1="429.9" y1="86" x2="429.5" y2="88.2"/>
	<line class="st2" x1="435.7" y1="71.3" x2="435.5" y2="73.5"/>
	<line class="st2" x1="435.3" y1="75.8" x2="435" y2="78"/>
	<line class="st2" x1="434.8" y1="80.2" x2="434.4" y2="84.1"/>
	<line class="st2" x1="434.1" y1="86.8" x2="433.8" y2="89"/>
	<line class="st2" x1="430" y1="70.2" x2="429.4" y2="72.4"/>
	<line class="st2" x1="428.8" y1="74.5" x2="428.2" y2="76.6"/>
	<line class="st2" x1="427.6" y1="78.8" x2="426.5" y2="82.5"/>
	<line class="st2" x1="425.7" y1="85.2" x2="425.1" y2="87.4"/>
	<path class="st4" d="M427.5,63.5c0,0,2.9-5.1,7.6-4.2c4.1,0.8,4.9,5.1,5.5,6.7"/>
	<path class="st0" d="M429.2,63.2c0,0,2.9-5.1,7.6-4.2c4.1,0.8,4.9,5.1,5.5,6.7"/>
</g>
<line class="st5" x1="448.6" y1="59.2" x2="449.7" y2="60.8"/>
<line class="st5" x1="448.3" y1="60.6" x2="450" y2="59.4"/>
<line class="st5" x1="441.9" y1="49.9" x2="443" y2="51.5"/>
<line class="st5" x1="441.6" y1="51.3" x2="443.3" y2="50.1"/>
<rect x="293.5" y="-46" transform="matrix(-1.836970e-16 1 -1 -1.836970e-16 248.916 -339.5063)" class="st1" width="1.4" height="1.4"/>
<rect x="293.5" y="-43.2" transform="matrix(-1.836970e-16 1 -1 -1.836970e-16 251.6891 -336.7332)" class="st1" width="1.4" height="1.4"/>
<rect x="292.1" y="-44.6" transform="matrix(-1.836970e-16 1 -1 -1.836970e-16 248.916 -336.7332)" class="st1" width="1.4" height="1.4"/>
<rect x="294.9" y="-44.6" transform="matrix(-1.836970e-16 1 -1 -1.836970e-16 251.6891 -339.5063)" class="st1" width="1.4" height="1.4"/>
<g>
	
		<rect x="271.1" y="61.8" transform="matrix(-1.836970e-16 1 -1 -1.836970e-16 334.2497 -209.2664)" class="st1" width="1.4" height="1.4"/>
	
		<rect x="272.4" y="60.3" transform="matrix(-1.836970e-16 1 -1 -1.836970e-16 334.1112 -212.1782)" class="st1" width="1.4" height="1.4"/>
	
		<rect x="272.4" y="63" transform="matrix(-1.836970e-16 1 -1 -1.836970e-16 336.8843 -209.405)" class="st1" width="1.4" height="1.4"/>
	
		<rect x="273.8" y="61.6" transform="matrix(-1.836970e-16 1 -1 -1.836970e-16 336.8843 -212.1782)" class="st1" width="1.4" height="1.4"/>
</g>
<g>
	<circle class="st2" cx="359.6" cy="24.4" r="31.4"/>
	<circle class="st0" cx="357.5" cy="25.1" r="31.4"/>
	<g>
		<circle class="st1" cx="357.7" cy="25.1" r="1.5"/>
		<circle class="st1" cx="377.1" cy="43" r="1.5"/>
		<circle class="st1" cx="349.3" cy="44.4" r="0.9"/>
		<circle class="st1" cx="350.7" cy="1.5" r="0.9"/>
		<circle class="st1" cx="342.6" cy="7.8" r="1.5"/>
		
			<ellipse transform="matrix(0.7506 -0.6607 0.6607 0.7506 73.6629 259.8899)" class="st1" cx="381.1" cy="32.4" rx="0.9" ry="0.9"/>
		<ellipse transform="matrix(0.7506 -0.6607 0.6607 0.7506 79.445 259.4819)" class="st1" cx="383.5" cy="24.5" rx="0.9" ry="0.9"/>
		
			<ellipse transform="matrix(0.7506 -0.6607 0.6607 0.7506 78.2006 252.3138)" class="st1" cx="373.4" cy="22.6" rx="1.5" ry="1.5"/>
	</g>
</g>
<g>
	<line class="st6" x1="429.3" y1="31.4" x2="421.1" y2="23.2"/>
	<polyline class="st2" points="429.3,15 437.5,23.2 429.3,31.4 	"/>
	<line class="st6" x1="421.1" y1="23.2" x2="429.3" y2="15"/>
	
		<rect x="418.1" y="17.4" transform="matrix(0.7071 0.7071 -0.7071 0.7071 140.5505 -292.9228)" class="st2" width="11.6" height="11.6"/>
	<line class="st2" x1="437.5" y1="23.2" x2="432" y2="23.2"/>
	<line class="st2" x1="429.3" y1="31.4" x2="423.9" y2="31.4"/>
	<line class="st6" x1="421.1" y1="23.2" x2="415.7" y2="23.2"/>
	<line class="st2" x1="429.3" y1="15" x2="423.9" y2="15"/>
</g>
<g>
	<polyline class="st2" points="399.7,-20.7 395.6,-20.7 395.6,-32.1 411.2,-32.1 411.2,-20.7 406.3,-20.7 	"/>
	<line class="st2" x1="395.6" y1="-32.1" x2="393.9" y2="-28.9"/>
	<line class="st2" x1="395.6" y1="-20.7" x2="393.9" y2="-16.4"/>
	<line class="st2" x1="411.2" y1="-20.7" x2="412.9" y2="-16.4"/>
	<line class="st2" x1="412.9" y1="-28.9" x2="411.2" y2="-32.1"/>
	<polyline class="st2" points="412.9,-28.9 412.9,-16.4 393.9,-16.4 393.9,-28.9 	"/>
	<line class="st2" x1="394.8" y1="-29.1" x2="412.1" y2="-29.1"/>
	<polyline class="st2" points="402.8,-27.4 402.8,-26.4 404,-26.4 	"/>
	<polygon class="st2" points="400.5,-30.1 401.4,-27.6 404.4,-27.6 405.3,-30.1 	"/>
	<polyline class="st2" points="401.4,-24.5 406.1,-24.5 406.1,-19.7 	"/>
	<polyline class="st2" points="399.8,-20.3 399.8,-22.9 404.5,-22.9 404.5,-18.1 399.8,-18.1 399.8,-20.3 	"/>
	<polygon class="st0" points="406.1,-19.5 404.9,-18.3 404.9,-23 406.1,-24.3 	"/>
	<polygon class="st0" points="401.1,-24.3 399.8,-23.1 404.6,-23.1 405.8,-24.3 	"/>
	<line class="st2" x1="406.1" y1="-24.5" x2="404.5" y2="-22.9"/>
	<line class="st2" x1="406.1" y1="-19.7" x2="404.5" y2="-18.1"/>
	<line class="st2" x1="401.4" y1="-24.5" x2="399.8" y2="-22.9"/>
</g>
<path class="st7" d="M413.4,26.9c-7.1,1.6-17.9,2.9-31,3.7"/>
<path class="st7" d="M389.6,14.9c10.2,0.8,18.7,2,24.5,3.4"/>
<path class="st7" d="M303.9,17.3c6.7-1.2,15.6-2.2,25.9-2.8"/>
<path class="st7" d="M333,30.7c-11.7-0.6-21.7-1.7-29.1-3"/>
<path class="st7" d="M382.4,30.6c-7.9,0.5-16.6,0.7-25.7,0.7c-8.3,0-16.3-0.2-23.6-0.6"/>
<path class="st5" d="M320.1-33.9c-1.9-1.2-3.3-1.6-4.1-1c-2.9,2.1,6.7,20.5,18.9,39.9"/>
<path class="st2" d="M391.5,60c-3-5.9-7.2-13.2-12.3-21.2c-4.2-6.6-9.1-13.8-14.4-21.1c-5.2-7.3-10.4-14.1-15.4-20.1
	c-1.2-1.5-5.8-7.6-7-9.1"/>
<path class="st8" d="M399.2-13.5C396-8.5,391-2,384.7,5.3"/>
<path class="st8" d="M369.2-1.6c8.7-7.8,16.5-14,22.5-17.9"/>
<path class="st7" d="M334.4,33c4.8-5.3,10.2-11,16-16.8c6.5-6.5,12.9-12.5,18.8-17.8"/>
<path class="st7" d="M315,57c4.3-6.3,11-14.7,19.4-24"/>
<path class="st7" d="M341.2,49c-7.1,6.2-13.5,11.3-18.7,14.8"/>
<path class="st2" d="M370.6,53.9c4.3,5,8.5,9.8,11.7,13.1"/>
<line class="st2" x1="313.6" y1="61.1" x2="313.6" y2="71.5"/>
<line class="st2" x1="314.9" y1="61.1" x2="314.9" y2="71.5"/>
<rect x="317.3" y="59.5" class="st1" width="1.3" height="13.4"/>
<rect x="311.3" y="59.5" class="st1" width="1.3" height="13.4"/>
<path class="st2" d="M321.1,76.6c-5.1,0.3-4.8-4.3-4.8-4.3v-2.5v-8.7"/>
<path class="st9" d="M341.2-20.3c0,0.2-0.1,0.3-0.2,0.5c-0.1-0.9-0.7-1.7-1.6-2.1c0,0-0.1,0-0.1,0c-0.2-0.1-0.4-0.1-0.6-0.1
	c-0.5-1.1-1.2-2.2-1.9-3.2c0.5,0,1,0.1,1.4,0.2C340-24.5,341.4-22.8,341.2-20.3z"/>
<path class="st9" d="M332.4-16.2c0,0.2,0,0.4,0.1,0.7c0.3,0.8,0.9,1.3,1.6,1.6c0.1,0,0.3,0.1,0.4,0.1c0,0,0,0,0,0
	c-0.2,0.1-0.3,0.2-0.5,0.2c-0.7,0.1-1.3,0-1.8-0.1c-1.9-0.6-3-2.4-3-4.3C330.2-17.4,331.3-16.7,332.4-16.2z"/>
<g>
	<path class="st9" d="M323.2-31.7c0.9,0.1,1.9,0.3,2.9,0.5c2.7,0.8,5.4,2.4,7.7,4.7c1.7,1.7,3,3.7,3.9,5.7c0,0,0.1,0,0.1,0
		c0.3,0.1,0.6,0.2,0.9,0.4c1.3,1,1.3,2.9,2.2,3.9c0,0.1-0.1,0.1-0.3,0.1c-0.3,0-0.7-0.1-1.1-0.1c-0.2,0-0.3,0-0.4,0.1
		c-0.8,0.6,1.2,2.5,1.1,2.5c-0.1,0.1-0.3,0.1-0.4,0.1c-0.1,0-0.2,0-0.3,0c-1-0.3-2.4-1.9-2.7-2c0,0,0,0,0,0c0,0,0,0,0,0
		c-0.3,0,0.4,1.1,0.4,1.1c0,0.1-0.1,0.1-0.2,0.1c-0.1,0-0.1,0-0.2,0c-0.4-0.1-1.1-0.6-1.6-1.2c-0.5-0.5-0.7-1-0.9-1.4c0,0,0,0,0,0
		c-2.1-0.9-4-2.2-5.8-4C325.2-24.2,323.5-28.1,323.2-31.7 M323.2-32.7c-0.3,0-0.5,0.1-0.7,0.3c-0.2,0.2-0.3,0.5-0.3,0.8
		c0.3,4,2.3,8.1,5.4,11.2c1.7,1.7,3.6,3.1,5.7,4c0.2,0.5,0.5,0.9,0.9,1.3c0.6,0.7,1.4,1.3,2.1,1.5c0.2,0.1,0.3,0.1,0.5,0.1
		c0.3,0,0.5-0.1,0.7-0.2c0.5,0.4,1,0.8,1.6,0.9c0.2,0.1,0.4,0.1,0.6,0.1c0.4,0,0.7-0.1,1-0.3c0,0,0,0,0.1-0.1
		c0.3-0.3,0.6-0.8-0.1-1.7c-0.2-0.3-0.4-0.5-0.5-0.6c0.1,0,0.2,0,0.3,0c0.2,0,0.6,0,1-0.4c0.2-0.2,0.3-0.5,0.3-0.8
		c0-0.3-0.1-0.5-0.3-0.7c-0.2-0.2-0.4-0.8-0.6-1.3c-0.3-0.9-0.7-1.9-1.7-2.7c-0.3-0.2-0.6-0.4-0.8-0.5c-0.9-2-2.2-3.9-3.9-5.5
		c-2.3-2.4-5.1-4.1-8.1-4.9C325.3-32.4,324.3-32.6,323.2-32.7C323.3-32.7,323.2-32.7,323.2-32.7L323.2-32.7z"/>
</g>
<path class="st9" d="M325.5-29.3c-0.1,0.1-0.3,0.1-0.4,0.1c-0.1,0-0.1-0.1-0.2-0.1c-0.2-0.2-0.2-0.4,0-0.6c0.1-0.1,0.3-0.1,0.4-0.1
	c0.1,0,0.1,0.1,0.2,0.1C325.7-29.7,325.7-29.4,325.5-29.3z"/>
<polygon class="st9" points="334.4,-20.4 334.5,-19.9 334,-20 333.6,-20.2 333.9,-20.5 334.3,-20.9 "/>
<path class="st9" d="M336-17.9C336-17.9,336-17.9,336-17.9c-0.2,0,0.1,0.6,0.2,0.6c0,0,0,0,0,0c0,0.1-0.1,0.1-0.2,0
	c-0.2,0-0.4-0.2-0.6-0.3l2.1-2.1c0.2,0.5,0.4,1.1,0.7,1.4c0,0.2-0.8-0.1-0.9,0.1c-0.2,0.4,0.5,1.3,0.6,1.3c0,0,0,0,0,0
	c-0.1,0.1-0.2,0.1-0.4,0C336.9-17,336.2-17.8,336-17.9z"/>
<polygon class="st9" points="332.9,-19 332.5,-19.1 332.8,-19.5 333.2,-19.8 333.3,-19.3 333.4,-18.8 "/>
<path class="st9" d="M327.3-27.5c-0.2,0.2-0.5,0.3-0.8,0.2c-0.1,0-0.2-0.1-0.3-0.2c-0.3-0.3-0.3-0.8,0-1.1c0.2-0.2,0.5-0.3,0.8-0.2
	c0.1,0,0.2,0.1,0.3,0.2C327.6-28.3,327.6-27.8,327.3-27.5z"/>
<path class="st10" d="M331.7-23.1c-0.7,0.7-1.7,0.9-2.6,0.7c-0.4-0.1-0.8-0.3-1.1-0.7c-1-1-1-2.7,0-3.7c0.7-0.7,1.7-0.9,2.6-0.7
	c0.4,0.1,0.8,0.3,1.1,0.7C332.7-25.8,332.7-24.1,331.7-23.1z"/>
<polygon class="st9" points="335.4,-22 335.6,-21.5 335.7,-21.1 335.2,-21.2 334.7,-21.3 335.1,-21.7 "/>
<g>
	<path class="st2" d="M289.7,22.4v1.7c0,1.1,0.9,2,2,2h1c1.1,0,2-0.9,2-2v-1.7c1.1,0,1.9-1,1.9-2.2v-0.4c0-1.3-1-2.3-2.3-2.3h-4.1
		c-1.3,0-2.3,1-2.3,2.3v0.4C287.8,21.4,288.7,22.4,289.7,22.4z"/>
	<path class="st2" d="M293.5,27.6h-2.2c-5.1,0-6.1-2.8-6.1-6.1v-0.5c0-3.4,2.8-6.1,6.1-6.1h2.2c3.4,0,6.1,2.8,6.1,6.1v0.5
		C299.6,24.8,298.1,27.6,293.5,27.6z"/>
	<path class="st2" d="M298,27.9c-1,1.3-2.4,2.1-4.5,2.1h-2.2c-2.5,0-4-0.8-5-2.1"/>
	<line class="st2" x1="285.1" y1="21.8" x2="285.1" y2="12.9"/>
	<circle class="st2" cx="285.1" cy="11.7" r="1.2"/>
	<line class="st2" x1="293.1" y1="22.6" x2="292.7" y2="22.1"/>
	<line class="st2" x1="291.4" y1="22.6" x2="291.8" y2="22.1"/>
	<path class="st2" d="M290.9,24.2c0.5,0,1.2,0.1,1.4,0.1c0.2,0,0.6-0.1,1.1-0.1"/>
	<path class="st2" d="M288,18.8c0,0-1.5-0.3-1.5,1.2s1.5,1.2,1.5,1.2"/>
	<path class="st2" d="M296.5,18.8c0,0,1.3-0.3,1.3,1.2c0,1.5-1.3,1.2-1.3,1.2"/>
	<path class="st1" d="M291.6,20c0,0.3-0.3,0.6-0.6,0.6s-0.6-0.3-0.6-0.6h0.6l-0.4-0.4c0.1-0.1,0.3-0.2,0.4-0.2
		C291.3,19.4,291.6,19.7,291.6,20z"/>
	<path class="st1" d="M294,20c0,0.3-0.3,0.6-0.6,0.6s-0.6-0.3-0.6-0.6h0.6l-0.4-0.4c0.1-0.1,0.3-0.2,0.4-0.2
		C293.7,19.4,294,19.7,294,20z"/>
</g>
<g>
	<g>
		<g>
			<line class="st11" x1="398.2" y1="75.1" x2="388.3" y2="75.1"/>
			<g>
				<polygon class="st1" points="396.2,73.4 397.9,75.1 396.2,76.8 397.7,76.8 399.4,75.1 397.7,73.4 				"/>
			</g>
		</g>
	</g>
	<g>
		<g>
			<line class="st11" x1="388.3" y1="75.1" x2="388.3" y2="63.2"/>
			<g>
				<polygon class="st1" points="390,65.2 388.3,63.5 386.6,65.2 386.6,63.8 388.3,62.1 390,63.8 				"/>
			</g>
		</g>
	</g>
	<g>
		<g>
			<line class="st11" x1="388.3" y1="75.1" x2="381.8" y2="81.7"/>
			<g>
				<polygon class="st1" points="382,79.1 382,81.5 384.4,81.5 383.4,82.5 381,82.5 381,80.1 				"/>
			</g>
		</g>
	</g>
	<ellipse class="st0" cx="388.3" cy="75.1" rx="5.2" ry="5.3"/>
</g>
<g>
	<g>
		<g>
			<line class="st5" x1="437.6" y1="-20.8" x2="437.9" y2="-23.9"/>
			<line class="st5" x1="439.3" y1="-22.2" x2="436.2" y2="-22.5"/>
			<line class="st5" x1="447.3" y1="-1.1" x2="447.6" y2="-4.1"/>
			<line class="st5" x1="449" y1="-2.4" x2="445.9" y2="-2.8"/>
			<line class="st5" x1="450.2" y1="-16.1" x2="447.8" y2="-14.2"/>
			<line class="st5" x1="448" y1="-16.4" x2="449.9" y2="-14"/>
			<line class="st5" x1="446.4" y1="-37.2" x2="444" y2="-35.3"/>
			<line class="st5" x1="444.2" y1="-37.4" x2="446.2" y2="-35"/>
		</g>
		<polygon class="st12" points="437.8,-22.3 429.8,-38 445.2,-36.3 448.9,-15.3 		"/>
		<line class="st12" x1="447.7" y1="-2.7" x2="449.3" y2="-15.4"/>
	</g>
	<g>
		<line class="st5" x1="431.6" y1="-37.1" x2="428.9" y2="-38.5"/>
		<line class="st5" x1="431" y1="-39.2" x2="429.6" y2="-36.4"/>
	</g>
</g>
<polygon class="st2" points="376.6,-37.1 375,-37.4 373.6,-36.8 373.8,-38.3 373.3,-39.8 374.8,-39.5 376.2,-40.1 376,-38.5 "/>
<ellipse transform="matrix(0.9926 -0.1211 0.1211 0.9926 6.912 44.0922)" class="st1" cx="366.1" cy="-34.8" rx="0.8" ry="0.8"/>
<ellipse transform="matrix(0.9926 -0.1211 0.1211 0.9926 7.6209 43.444)" class="st1" cx="361.1" cy="-41" rx="0.8" ry="0.8"/>
<ellipse transform="matrix(0.9926 -0.1211 0.1211 0.9926 6.3525 42.7157)" class="st1" cx="354.5" cy="-30.9" rx="1.5" ry="1.5"/>
<polygon class="st2" points="419.4,-24 420,-23.1 420.9,-22.5 420,-22 419.4,-21 418.9,-22 417.9,-22.5 418.9,-23.1 "/>
<g>
	
		<rect x="409.1" y="90.4" transform="matrix(-1.836970e-16 1 -1 -1.836970e-16 500.9037 -318.7628)" class="st1" width="1.4" height="1.4"/>
	
		<rect x="410.5" y="88.8" transform="matrix(-1.836970e-16 1 -1 -1.836970e-16 500.7651 -321.6745)" class="st1" width="1.4" height="1.4"/>
	
		<rect x="410.5" y="91.6" transform="matrix(-1.836970e-16 1 -1 -1.836970e-16 503.5383 -318.9013)" class="st1" width="1.4" height="1.4"/>
	
		<rect x="411.9" y="90.2" transform="matrix(-1.836970e-16 1 -1 -1.836970e-16 503.5383 -321.6745)" class="st1" width="1.4" height="1.4"/>
</g>
<circle class="st2" cx="43.6" cy="57.2" r="18.7"/>
<circle class="st0" cx="42.4" cy="57.6" r="18.7"/>
<g>
	<circle class="st1" cx="42.5" cy="57.6" r="0.9"/>
	<circle class="st1" cx="54" cy="68.3" r="0.9"/>
	<circle class="st1" cx="37.5" cy="69.1" r="0.5"/>
	<circle class="st1" cx="38.3" cy="43.5" r="0.5"/>
	<circle class="st1" cx="33.5" cy="47.3" r="0.9"/>
	<ellipse transform="matrix(0.7506 -0.6607 0.6607 0.7506 -26.8397 52.7426)" class="st1" cx="56.5" cy="61.9" rx="0.5" ry="0.5"/>
	<ellipse transform="matrix(0.7506 -0.6607 0.6607 0.7506 -23.3957 52.4996)" class="st1" cx="57.9" cy="57.2" rx="0.5" ry="0.5"/>
	<ellipse transform="matrix(0.7506 -0.6607 0.6607 0.7506 -24.1369 48.2301)" class="st1" cx="51.8" cy="56.1" rx="0.9" ry="0.9"/>
</g>
<path class="st7" d="M28.6,62.3c2.9-3.2,6.1-6.6,9.5-10c3.9-3.9,7.7-7.5,11.2-10.6"/>
<path class="st13" d="M90.2,49.6c-2.1-0.5-5-1.4-7.7-4.1c-8-8-12.1-0.2-15,4c-18.5,26.8-42,15-48,11c-1.4-0.9-4.5-4,3.8-5.5"/>
<g>
	<path class="st9" d="M97.9,52.6c-0.1-0.1-0.2-0.2-0.3-0.3c0.7,0.3,1.6,0.1,2.2-0.5c0,0,0,0,0-0.1c0.1-0.1,0.2-0.3,0.3-0.4
		c1.1,0,2.1-0.1,3.2-0.3c-0.2,0.4-0.4,0.7-0.7,1C101.6,53.2,99.8,53.7,97.9,52.6z"/>
	<path class="st9" d="M97.9,44.3c-0.2-0.1-0.4-0.1-0.6-0.2c-0.7-0.1-1.4,0.2-1.8,0.7c-0.1,0.1-0.2,0.2-0.2,0.3c0,0,0,0,0,0
		c0-0.1,0-0.3,0-0.5c0.2-0.5,0.5-1,0.8-1.4c1.1-1.3,2.9-1.5,4.4-0.8C99.6,43,98.8,43.6,97.9,44.3z"/>
	<g>
		<path class="st9" d="M108.5,42c1.7,0,3.3,0.3,4.7,0.8c-0.4,0.7-0.9,1.4-1.5,2c-1.6,1.8-3.8,3.3-6.4,4.2c-1.8,0.6-3.6,0.9-5.3,0.9
			c-0.2,0-0.3,0-0.5,0c0,0,0,0,0,0.1c-0.2,0.2-0.4,0.4-0.6,0.5c-0.4,0.2-0.9,0.3-1.4,0.3c-0.6,0-1.1-0.1-1.6-0.1
			c-0.3,0-0.6,0-0.8,0.1c-0.3-0.1,0.7-1.2,0.5-1.4c0-0.3-0.3-0.4-0.7-0.4c-0.7,0-1.6,0.3-1.7,0.3c0,0,0,0,0,0c0-0.2,0-0.4,0.2-0.6
			c0.6-0.7,2.3-1.2,2.5-1.4c0,0,0,0,0,0c0.1-0.1-0.1-0.2-0.4-0.2c-0.3,0-0.6,0-0.6,0c-0.1-0.1,0-0.2,0.1-0.4
			c0.3-0.3,0.8-0.6,1.5-0.8c0.4-0.1,0.8-0.2,1.1-0.2c0.1,0,0.2,0,0.3,0c0,0,0,0,0,0c1.4-1.3,3.2-2.3,5.2-3
			C105,42.3,106.8,42,108.5,42 M108.5,41c-1.9,0-3.8,0.3-5.7,1c-1.9,0.7-3.7,1.7-5.2,2.9c-0.4,0-0.9,0.1-1.4,0.2
			c-0.8,0.2-1.6,0.7-2,1.1C94,46.7,94,47,94,47.3c-0.5,0.2-0.9,0.5-1.2,0.9c-0.4,0.4-0.5,1-0.4,1.5c0,0,0,0.1,0,0.1
			c0.1,0.4,0.5,0.7,1,0.7c0.2,0,0.3,0,0.5-0.1c0.1,0,0.2-0.1,0.4-0.1c-0.1,0.3-0.2,0.6-0.1,0.9c0.1,0.3,0.3,0.5,0.6,0.7
			c0.1,0.1,0.3,0.1,0.4,0.1c0.1,0,0.2,0,0.3-0.1c0.1,0,0.3-0.1,0.5-0.1c0.2,0,0.5,0,0.7,0c0.3,0,0.6,0,0.9,0c0.7,0,1.3-0.1,1.8-0.4
			c0.3-0.1,0.5-0.3,0.7-0.4c0,0,0,0,0,0c1.9,0,3.8-0.3,5.7-1c2.7-1,5.1-2.5,6.8-4.5c0.6-0.7,1.1-1.4,1.6-2.2
			c0.1-0.3,0.2-0.6,0.1-0.8c-0.1-0.3-0.3-0.5-0.6-0.6C112.1,41.3,110.4,41,108.5,41L108.5,41z"/>
	</g>
	<path class="st9" d="M110.6,43.7c0-0.1,0-0.2,0.1-0.3c0,0,0.1-0.1,0.1-0.1c0.2-0.1,0.4,0,0.4,0.2c0,0.1,0,0.2-0.1,0.3
		c0,0-0.1,0.1-0.1,0.1C110.8,44,110.6,43.9,110.6,43.7z"/>
	<polygon class="st9" points="100.4,47.3 100,47.3 100.3,46.9 100.6,46.6 100.7,47 100.9,47.4 	"/>
	<path class="st9" d="M97.9,47.7C97.9,47.7,97.9,47.7,97.9,47.7c0.1-0.1-0.5-0.1-0.5-0.1c0,0,0,0,0,0c0,0,0-0.1,0.1-0.2
		c0.1-0.1,0.3-0.2,0.5-0.3l0.8,2.4c-0.5,0-0.9-0.1-1.3,0c-0.2-0.1,0.4-0.6,0.3-0.7c-0.2-0.3-1.2-0.1-1.2,0c0,0,0,0,0,0
		c0-0.1,0-0.2,0.1-0.3C96.9,48,97.8,47.8,97.9,47.7z"/>
	<polygon class="st9" points="99.9,45.7 100.2,45.4 100.3,45.8 100.4,46.2 100,46.1 99.6,46 	"/>
	<path class="st9" d="M108.5,44.5c-0.1-0.2,0-0.5,0.1-0.7c0.1-0.1,0.2-0.1,0.3-0.2c0.3-0.1,0.7,0.1,0.8,0.4c0.1,0.2,0,0.5-0.1,0.7
		c-0.1,0.1-0.2,0.1-0.3,0.2C109,45,108.7,44.8,108.5,44.5z"/>
	<path class="st10" d="M103.5,46.2c-0.3-0.8-0.1-1.6,0.4-2.2c0.2-0.3,0.6-0.5,0.9-0.6c1.2-0.4,2.4,0.2,2.9,1.4
		c0.3,0.8,0.1,1.6-0.4,2.2c-0.2,0.3-0.6,0.5-0.9,0.6C105.2,48,104,47.4,103.5,46.2z"/>
	<polygon class="st9" points="101.3,48.8 100.9,48.7 100.5,48.6 100.8,48.3 101.1,48 101.2,48.4 	"/>
</g>
<g>
	<line class="st14" x1="78.2" y1="18.7" x2="80.1" y2="17.3"/>
	<line class="st14" x1="79.8" y1="19" x2="78.5" y2="17"/>
</g>
<polygon class="st2" points="146,59.7 147.1,60.4 148.5,60.4 147.8,61.5 147.8,62.8 146.7,62.1 145.3,62 146,61 "/>
<g>
	<line class="st14" x1="162.7" y1="68.2" x2="161.8" y2="66"/>
	<line class="st14" x1="163.4" y1="66.8" x2="161.1" y2="67.5"/>
</g>
<g>
	<polygon class="st15" points="14.5,36.3 13.6,37.4 13.4,38.7 12.5,37.8 11.2,37.7 12.1,36.6 12.3,35.3 13.2,36.2 	"/>
	<ellipse transform="matrix(0.4094 -0.9123 0.9123 0.4094 1.1954 36.7099)" class="st1" cx="29" cy="17.4" rx="1.1" ry="1.1"/>
</g>
<path class="st16" d="M80.5,72.5c0.7,0.6,0.7,1.6,0.1,2.3s-1.6,0.7-2.3,0.1s-0.7-1.6-0.1-2.3S79.8,71.9,80.5,72.5z"/>
<g>
	<path class="st2" d="M160,22.9l1-4.4c0,0-1.4-1.8-3.1-2.2c-2.2-0.5-3.7,1.5-4.9,0.2l-1.1,4.9c1.8,0.9,3.3-0.8,5-0.7
		C158,20.7,160,22.9,160,22.9z"/>
	<path class="st0" d="M160,22.9l1-4.4c0,0-1.4-1.8-3.1-2.2c-2.2-0.5-3.7,1.5-4.9,0.2l-1.1,4.9c1.8,0.9,3.3-0.8,5-0.7
		C158,20.7,160,22.9,160,22.9z"/>
	<path class="st0" d="M157.8,16.3c-2.2-0.5-3.7,1.5-4.9,0.2l-1.1,4.9c1.8,0.9,3.3-0.8,5-0.7"/>
	<polyline class="st2" points="161.4,17.5 158.9,29 160.7,28.5 	"/>
</g>
<g>
	<line class="st14" x1="190.2" y1="15.4" x2="191.9" y2="17"/>
	<line class="st14" x1="190.2" y1="17" x2="192" y2="15.4"/>
	<line class="st14" x1="180.3" y1="6.4" x2="182" y2="8"/>
	<line class="st14" x1="180.3" y1="8" x2="182.1" y2="6.4"/>
</g>
</svg>
