<?xml version="1.0" encoding="utf-8"?>
<!-- Generator: Adobe Illustrator 21.1.0, SVG Export Plug-In . SVG Version: 6.00 Build 0)  -->
<svg version="1.1" id="Layer_1" xmlns="http://www.w3.org/2000/svg" xmlns:xlink="http://www.w3.org/1999/xlink" x="0px" y="0px"
	 viewBox="0 0 60 56.7" style="enable-background:new 0 0 60 56.7;" xml:space="preserve">
<style type="text/css">
	
		.st0{opacity:0.25;fill:none;stroke:#FFFFFF;stroke-width:2;stroke-linejoin:round;stroke-dasharray:4,2;enable-background:new    ;}
	.st1{opacity:0.45;fill:#FC5044;enable-background:new    ;}
	.st2{opacity:0.2;fill:#FC5044;enable-background:new    ;}
	.st3{fill:#FF5144;}
	.st4{fill:#5BCCC4;}
	.st5{opacity:0.75;fill:#FC473A;enable-background:new    ;}
	.st6{fill:#F9D35A;}
	.st7{fill:#F76969;}
</style>
<line class="st0" x1="24.3" y1="-94" x2="24.3" y2="-118.7"/>
<polyline class="st0" points="49,-94 24.3,-94 11.8,-85.1 "/>
<rect x="12.6" y="-109.1" class="st1" width="23.1" height="23.1"/>
<polygon class="st2" points="48.3,-94.3 37.3,-86.4 37.3,-109.1 48.3,-117 "/>
<circle class="st3" cx="48" cy="-94" r="2.3"/>
<circle class="st4" cx="12.5" cy="-85.1" r="2.3"/>
<polygon class="st5" points="23.9,-118.6 47.6,-118.6 36.4,-110.7 12.6,-110.7 "/>
<circle class="st6" cx="24.3" cy="-118.7" r="2.4"/>
<path class="st7" d="M50.5,30.7l-7.5-5v-7.4c0-0.1,0-0.3-0.1-0.4c0,0,0-0.1-0.1-0.1c-0.1-0.1-0.1-0.1-0.2-0.2c0,0,0,0,0,0l-4.2-2.8
	c-0.1-0.1-0.2-0.2-0.4-0.3L34.2,12c-0.1-0.1-0.3-0.2-0.4-0.3L30,9.2c-0.3-0.2-0.7-0.2-1,0l-3.8,2.5c-0.2,0-0.3,0.1-0.4,0.3L21,14.5
	c-0.2,0-0.3,0.1-0.4,0.3l-4.2,2.8c0,0,0,0,0,0c-0.1,0.1-0.1,0.1-0.2,0.2c0,0,0,0.1-0.1,0.1C16.1,18,16,18.2,16,18.3v7.4l-7.5,5
	c-0.2,0.2-0.4,0.4-0.4,0.7c0,0.3,0.1,0.6,0.4,0.7l16.6,11.2c0.1,0.1,0.3,0.1,0.5,0.1c0.3,0,0.6-0.1,0.7-0.4c0.3-0.4,0.2-0.9-0.2-1.2
	L10.6,31.4l5.4-3.6v3.3c0,0.3,0.1,0.6,0.4,0.7L29,40.4c0,0,0,0,0,0c0,0,0,0,0,0c0.1,0.1,0.3,0.1,0.4,0.1l0,0c0,0,0.4,0.2,0.7-0.2
	c0,0,1.6-1.1,1.8-1.2c1.5-1,4-2.8,6.3-4.3l4.4-3c0,0,0,0,0,0c0,0,0,0,0,0c0.2,0,0.4-0.4,0.4-0.5v-3.4l5.4,3.6L32.9,41.9
	c-0.4,0.3-0.5,0.8-0.2,1.2c0.2,0.3,0.4,0.4,0.7,0.4c0.2,0,0.3,0,0.5-0.1l16.6-11.2c0.2-0.2,0.4-0.4,0.4-0.7
	C50.9,31.1,50.7,30.9,50.5,30.7z M25.5,13.6l2.4,1.6L25.3,17l-2.4-1.6L25.5,13.6z M29.5,16.3l2.6,1.7l-2.6,1.7L26.9,18L29.5,16.3z
	 M36.1,15.4L33.7,17l-2.6-1.7l2.4-1.6L36.1,15.4z M17.8,24.5L28.6,32v2.3l-10.2-6.8l-0.7-0.5V24.5z M41.2,27.1l-10.9,7.3v-2.6
	l10.9-7.5V27.1z M29.5,25.7l-2.8-1.9l2.8-1.9l2.8,1.9L29.5,25.7z M41.2,22.1l-10.9,7.5v-2.5l10.9-7.2V22.1z M33.9,22.7l-2.8-1.9
	l2.6-1.7l2.8,1.9L33.9,22.7z M27.9,20.8l-2.8,1.9L22.5,21l2.8-1.9L27.9,20.8z M28.6,27.2v2.7l-10.9-7.6v-2.4L28.6,27.2z M38.1,19.9
	L35.3,18l2.4-1.6l2.8,1.9L38.1,19.9z M29.5,11l2.4,1.6l-2.4,1.6l-2.4-1.6L29.5,11z M21.3,16.4l2.4,1.6l-2.8,1.9l-2.4-1.6L21.3,16.4z
	"/>
</svg>
