<?xml version="1.0" encoding="utf-8"?>
<!-- Generator: Adobe Illustrator 21.1.0, SVG Export Plug-In . SVG Version: 6.00 Build 0)  -->
<svg version="1.1" id="Layer_1" xmlns="http://www.w3.org/2000/svg" xmlns:xlink="http://www.w3.org/1999/xlink" x="0px" y="0px"
	 viewBox="0 0 60 56.7" style="enable-background:new 0 0 60 56.7;" xml:space="preserve">
<style type="text/css">
	
		.st0{opacity:0.25;fill:none;stroke:#FFFFFF;stroke-width:2;stroke-linejoin:round;stroke-dasharray:4,2;enable-background:new    ;}
	.st1{opacity:0.45;fill:#FC5044;enable-background:new    ;}
	.st2{opacity:0.2;fill:#FC5044;enable-background:new    ;}
	.st3{fill:#FF5144;}
	.st4{fill:#5BCCC4;}
	.st5{opacity:0.75;fill:#FC473A;enable-background:new    ;}
	.st6{fill:#F9D35A;}
	.st7{fill:#F76969;}
</style>
<line class="st0" x1="24.3" y1="-94" x2="24.3" y2="-118.7"/>
<polyline class="st0" points="49,-94 24.3,-94 11.8,-85.1 "/>
<rect x="12.6" y="-109.1" class="st1" width="23.1" height="23.1"/>
<polygon class="st2" points="48.3,-94.3 37.3,-86.4 37.3,-109.1 48.3,-117 "/>
<circle class="st3" cx="48" cy="-94" r="2.3"/>
<circle class="st4" cx="12.5" cy="-85.1" r="2.3"/>
<polygon class="st5" points="23.9,-118.6 47.6,-118.6 36.4,-110.7 12.6,-110.7 "/>
<circle class="st6" cx="24.3" cy="-118.7" r="2.4"/>
<path class="st7" d="M52.6,32.9l-8.2-5.5v-8.1c0-0.2,0-0.3-0.1-0.4c0,0,0-0.1-0.1-0.1c-0.1-0.1-0.1-0.2-0.2-0.2c0,0,0,0,0-0.1
	l-4.6-3.1c-0.1-0.1-0.3-0.2-0.4-0.3l-4.2-2.8c-0.1-0.1-0.3-0.2-0.4-0.3L30,9.2C29.7,9,29.3,9,29,9.2L24.8,12
	c-0.2,0.1-0.3,0.2-0.5,0.3l-4.2,2.8c-0.2,0.1-0.3,0.2-0.5,0.3l-4.6,3.1c0,0,0,0,0,0.1c-0.1,0.1-0.1,0.1-0.2,0.2c0,0,0,0.1-0.1,0.1
	c-0.1,0.1-0.1,0.3-0.1,0.4v8.1l-8.2,5.5C6.2,33.1,6,33.4,6,33.7c0,0.3,0.2,0.6,0.4,0.8l18.3,12.3c0.2,0.1,0.4,0.2,0.5,0.2
	c0.3,0,0.6-0.1,0.8-0.4c0.3-0.4,0.2-1-0.3-1.3L8.7,33.7l6-4v3.6c0,0.3,0.2,0.6,0.4,0.8L29,43.5c0,0,0,0,0,0c0,0,0,0,0,0
	c0.1,0.1,0.3,0.1,0.5,0.1l0,0c0,0,0.4,0.2,0.8-0.2c0,0,1.7-1.2,1.9-1.3c1.6-1.1,4.4-3.1,6.9-4.8l4.8-3.3c0,0,0,0,0,0c0,0,0,0,0,0
	c0.2,0,0.4-0.4,0.4-0.6v-3.8l6,4L33.2,45.2c-0.4,0.3-0.6,0.9-0.3,1.3c0.2,0.3,0.5,0.4,0.8,0.4c0.2,0,0.4-0.1,0.5-0.2l18.3-12.3
	c0.3-0.2,0.4-0.5,0.4-0.8C53,33.4,52.8,33.1,52.6,32.9z M25.1,14.1l2.6,1.8l-2.9,1.9L22.2,16L25.1,14.1z M29.5,17l2.9,1.9l-2.9,1.9
	l-2.9-1.9L29.5,17z M36.8,16l-2.6,1.8l-2.9-1.9l2.6-1.8L36.8,16z M16.6,26l11.9,8.3v2.6l-11.2-7.5l-0.7-0.5V26z M42.4,28.9l-11.9,8
	V34l11.9-8.3V28.9z M29.5,27.3l-3.1-2.1l3.1-2.1l3.1,2.1L29.5,27.3z M42.4,23.4l-11.9,8.3V29l11.9-8V23.4z M34.4,24.1L31.2,22
	l2.9-1.9l3.1,2.1L34.4,24.1z M27.8,22l-3.1,2.1l-2.9-1.9l3.1-2.1L27.8,22z M28.5,29v3l-11.9-8.3V21L28.5,29z M39,21l-3.1-2.1
	l2.6-1.8l3.1,2.1L39,21z M29.5,11.2l2.6,1.8l-2.6,1.8l-2.6-1.8L29.5,11.2z M20.5,17.2l2.6,1.8L20,21l-2.6-1.8L20.5,17.2z"/>
</svg>
