<?xml version="1.0" encoding="utf-8"?>
<!-- Generator: Adobe Illustrator 21.1.0, SVG Export Plug-In . SVG Version: 6.00 Build 0)  -->
<svg version="1.1" id="Layer_1" xmlns="http://www.w3.org/2000/svg" xmlns:xlink="http://www.w3.org/1999/xlink" x="0px" y="0px"
	 viewBox="0 0 68 44" style="enable-background:new 0 0 68 44;" xml:space="preserve">
<style type="text/css">
	
		.st0{opacity:0.25;fill:none;stroke:#FFFFFF;stroke-width:2;stroke-linejoin:round;stroke-dasharray:4,2;enable-background:new    ;}
	.st1{opacity:0.45;fill:#FC5044;enable-background:new    ;}
	.st2{opacity:0.2;fill:#FC5044;enable-background:new    ;}
	.st3{fill:#FF5144;}
	.st4{fill:#5BCCC4;}
	.st5{opacity:0.75;fill:#FC473A;enable-background:new    ;}
	.st6{fill:#F9D35A;}
	.st7{fill:#F05151;}
</style>
<line class="st0" x1="28.3" y1="-100.3" x2="28.3" y2="-125.1"/>
<polyline class="st0" points="53,-100.3 28.3,-100.3 15.8,-91.4 "/>
<rect x="16.6" y="-115.5" class="st1" width="23.1" height="23.1"/>
<polygon class="st2" points="52.3,-100.6 41.3,-92.8 41.3,-115.5 52.3,-123.3 "/>
<circle class="st3" cx="52" cy="-100.3" r="2.3"/>
<circle class="st4" cx="16.5" cy="-91.4" r="2.3"/>
<polygon class="st5" points="27.9,-125 51.6,-125 40.4,-117.1 16.6,-117.1 "/>
<circle class="st6" cx="28.3" cy="-125.1" r="2.4"/>
<path class="st7" d="M55.5,26.7l-7.9-5.2v-7.8c0-0.1,0-0.3-0.1-0.4c0,0,0-0.1-0.1-0.1c-0.1-0.1-0.1-0.2-0.2-0.2c0,0,0,0,0-0.1
	l-4.4-2.9c-0.1-0.1-0.3-0.2-0.4-0.3l-4-2.7c-0.1-0.1-0.3-0.2-0.4-0.3L34,4c-0.3-0.2-0.7-0.2-1,0l-4,2.7c-0.2,0.1-0.3,0.1-0.4,0.3
	l-4,2.7c-0.2,0.1-0.3,0.1-0.4,0.3l-4.4,2.9c0,0,0,0,0,0.1c-0.1,0.1-0.1,0.1-0.2,0.2c0,0,0,0.1-0.1,0.1c-0.1,0.1-0.1,0.3-0.1,0.4v7.8
	l-7.9,5.2c-0.3,0.2-0.4,0.5-0.4,0.8c0,0.3,0.2,0.6,0.4,0.8L28.9,40c0.2,0.1,0.3,0.2,0.5,0.2c0.3,0,0.6-0.1,0.8-0.4
	c0.3-0.4,0.2-1-0.2-1.3l-16.3-11l5.7-3.8v3.4c0,0.3,0.2,0.6,0.4,0.8l13.2,9c0,0,0,0,0,0c0,0,0,0,0,0c0.1,0.1,0.3,0.1,0.4,0.1l0,0
	c0,0,0.4,0.2,0.7-0.2c0,0,1.7-1.1,1.8-1.3c1.6-1.1,4.2-2.9,6.6-4.6l4.6-3.1c0,0,0,0,0,0c0,0,0,0,0,0c0.2,0,0.4-0.4,0.4-0.6v-3.6
	l5.7,3.8L37,38.4c-0.4,0.3-0.5,0.9-0.2,1.3c0.2,0.3,0.5,0.4,0.8,0.4c0.2,0,0.4-0.1,0.5-0.2l17.5-11.8c0.3-0.2,0.4-0.5,0.4-0.8
	C56,27.1,55.8,26.8,55.5,26.7z M29.3,8.7l2.5,1.7l-2.8,1.8l-2.5-1.7L29.3,8.7z M33.5,11.5l2.8,1.8l-2.8,1.8l-2.8-1.8L33.5,11.5z
	 M40.5,10.5l-2.5,1.7l-2.8-1.8l2.5-1.7L40.5,10.5z M21.2,20.1L32.6,28v2.5l-10.7-7.1l-0.7-0.5V20.1z M45.8,22.8l-11.4,7.7v-2.7
	l11.4-7.9V22.8z M33.5,21.4l-3-2l3-2l3,2L33.5,21.4z M45.8,17.6l-11.4,7.9V23l11.4-7.6V17.6z M38.2,18.3l-3-2l2.8-1.8l3,2L38.2,18.3
	z M31.9,16.3l-3,2l-2.8-1.8l3-2L31.9,16.3z M32.6,23v2.8l-11.4-7.9v-2.5L32.6,23z M42.6,15.3l-3-2l2.5-1.7l3,2L42.6,15.3z M33.5,5.9
	L36,7.6l-2.5,1.7L31,7.6L33.5,5.9z M24.9,11.6l2.5,1.7l-3,2l-2.5-1.7L24.9,11.6z"/>
</svg>
