<?xml version="1.0" encoding="utf-8"?>
<!-- Generator: Adobe Illustrator 21.1.0, SVG Export Plug-In . SVG Version: 6.00 Build 0)  -->
<svg version="1.1" id="Layer_1" xmlns="http://www.w3.org/2000/svg" xmlns:xlink="http://www.w3.org/1999/xlink" x="0px" y="0px"
	 viewBox="0 0 60 56.7" style="enable-background:new 0 0 60 56.7;" xml:space="preserve">
<style type="text/css">
	
		.st0{opacity:0.25;fill:none;stroke:#FFFFFF;stroke-width:2;stroke-linejoin:round;stroke-dasharray:4,2;enable-background:new    ;}
	.st1{opacity:0.45;fill:#FC5044;enable-background:new    ;}
	.st2{opacity:0.2;fill:#FC5044;enable-background:new    ;}
	.st3{fill:#FF5144;}
	.st4{fill:#5BCCC4;}
	.st5{opacity:0.75;fill:#FC473A;enable-background:new    ;}
	.st6{fill:#F9D35A;}
	.st7{fill:#F76969;}
</style>
<line class="st0" x1="24.3" y1="-94" x2="24.3" y2="-118.7"/>
<polyline class="st0" points="49,-94 24.3,-94 11.8,-85.1 "/>
<rect x="12.6" y="-109.1" class="st1" width="23.1" height="23.1"/>
<polygon class="st2" points="48.3,-94.3 37.3,-86.4 37.3,-109.1 48.3,-117 "/>
<circle class="st3" cx="48" cy="-94" r="2.3"/>
<circle class="st4" cx="12.5" cy="-85.1" r="2.3"/>
<polygon class="st5" points="23.9,-118.6 47.6,-118.6 36.4,-110.7 12.6,-110.7 "/>
<circle class="st6" cx="24.3" cy="-118.7" r="2.4"/>
<path class="st7" d="M55.7,33.2l-8.8-5.9v-8.7c0-0.2,0-0.3-0.1-0.4c0,0,0-0.1-0.1-0.1c-0.1-0.1-0.1-0.2-0.2-0.2c0,0,0,0-0.1-0.1
	l-4.9-3.3c-0.1-0.2-0.3-0.3-0.5-0.3l-4.5-3c-0.1-0.2-0.3-0.3-0.5-0.3l-4.5-3c-0.3-0.2-0.8-0.2-1.1,0l-4.5,3
	c-0.2,0.1-0.4,0.2-0.5,0.3l-4.5,3c-0.2,0.1-0.3,0.2-0.5,0.3l-4.9,3.3c0,0,0,0-0.1,0.1c-0.1,0.1-0.2,0.1-0.2,0.2c0,0-0.1,0.1-0.1,0.1
	c-0.1,0.1-0.1,0.3-0.1,0.4v8.7l-8.8,5.9C6.2,33.4,6,33.7,6,34.1c0,0.3,0.2,0.7,0.5,0.9L26,48.1c0.2,0.1,0.4,0.2,0.6,0.2
	c0.3,0,0.7-0.2,0.9-0.5c0.3-0.5,0.2-1.1-0.3-1.4L8.9,34.1l6.4-4.3v3.8c0,0.3,0.2,0.7,0.4,0.9l14.8,10.1c0,0,0,0,0.1,0c0,0,0,0,0,0
	c0.2,0.1,0.3,0.1,0.5,0.1l0,0c0,0,0.4,0.2,0.8-0.2c0,0,1.9-1.2,2.1-1.4c1.7-1.2,4.7-3.3,7.3-5.1l5.2-3.5c0,0,0,0,0,0c0,0,0,0,0,0
	c0.2,0,0.4-0.4,0.4-0.6v-4l6.4,4.3L35,46.4c-0.5,0.3-0.6,1-0.3,1.4c0.2,0.3,0.5,0.5,0.9,0.5c0.2,0,0.4-0.1,0.6-0.2l19.5-13.2
	c0.3-0.2,0.5-0.5,0.5-0.9C56.2,33.7,56,33.4,55.7,33.2z M26.4,13.1l2.8,1.9l-3.1,2.1l-2.8-1.9L26.4,13.1z M31.1,16.2l3.1,2.1
	l-3.1,2.1L28,18.3L31.1,16.2z M38.9,15.2L36,17.1L33,15l2.8-1.9L38.9,15.2z M17.3,25.9l12.7,8.9v2.7l-12-8L17.3,29V25.9z M44.9,28.9
	l-12.7,8.6v-3l12.7-8.9V28.9z M31.1,27.3l-3.3-2.2l3.3-2.2l3.3,2.2L31.1,27.3z M44.9,23.1L32.1,32v-2.9l12.7-8.5V23.1z M36.3,23.8
	L33,21.6l3.1-2.1l3.3,2.2L36.3,23.8z M29.2,21.6l-3.3,2.2l-3.1-2.1l3.3-2.2L29.2,21.6z M30.1,29.1v3.2l-12.7-8.9v-2.8L30.1,29.1z
	 M41.2,20.5l-3.3-2.2l2.8-1.9l3.3,2.2L41.2,20.5z M31.1,10l2.8,1.9l-2.8,1.9l-2.8-1.9L31.1,10z M21.5,16.4l2.8,1.9L21,20.5l-2.8-1.9
	L21.5,16.4z"/>
</svg>
