<?xml version="1.0" encoding="utf-8"?>
<!-- Generator: Adobe Illustrator 21.1.0, SVG Export Plug-In . SVG Version: 6.00 Build 0)  -->
<svg version="1.1" id="Layer_1" xmlns="http://www.w3.org/2000/svg" xmlns:xlink="http://www.w3.org/1999/xlink" x="0px" y="0px"
	 viewBox="0 0 140 140" style="enable-background:new 0 0 140 140;" xml:space="preserve">
<style type="text/css">
	.st0{opacity:0.1;fill:#070707;}
	.st1{opacity:0.55;}
	.st2{fill:none;stroke:#333333;stroke-width:3;stroke-linecap:round;stroke-linejoin:round;}
	.st3{fill:#333333;}
	.st4{fill:none;stroke:#FEFEFE;stroke-width:3;stroke-linecap:round;stroke-linejoin:round;stroke-miterlimit:10;}
	.st5{opacity:0.55;fill:none;stroke:#333333;stroke-width:3;stroke-linecap:round;stroke-linejoin:round;stroke-miterlimit:10;}
	.st6{fill:none;stroke:#333333;stroke-width:2;stroke-linecap:round;stroke-linejoin:round;}
	.st7{fill:none;stroke:#333333;stroke-width:2;stroke-linecap:round;stroke-linejoin:round;stroke-dasharray:1.9871,3.9743;}
	.st8{fill:none;stroke:#333333;stroke-width:2;stroke-linecap:round;stroke-linejoin:round;stroke-dasharray:2.0213,4.0426;}
	.st9{fill:none;stroke:#333333;stroke-width:2;stroke-linecap:round;stroke-linejoin:round;stroke-dasharray:1.2089,2.4178;}
	.st10{fill:#FFFFFF;}
	.st11{fill:none;stroke:#FFFFFF;stroke-width:3;stroke-linejoin:round;stroke-miterlimit:10;}
	.st12{fill:none;stroke:#FFFFFF;stroke-width:3;stroke-linecap:square;stroke-linejoin:round;stroke-miterlimit:10;}
	.st13{opacity:0.4;fill:none;stroke:#333333;stroke-width:3;stroke-miterlimit:10;}
	.st14{opacity:0.4;fill:#333333;}
	.st15{fill:none;stroke:#333333;stroke-width:2;stroke-linecap:round;stroke-linejoin:round;stroke-dasharray:2.0284,4.0567;}
	.st16{fill:none;stroke:#333333;stroke-width:2;stroke-linecap:round;stroke-linejoin:round;stroke-dasharray:2.0056,4.0112;}
	.st17{opacity:0.55;fill:none;stroke:#333333;stroke-width:4;stroke-linejoin:round;stroke-miterlimit:10;}
	.st18{fill:none;stroke:#FFFFFF;stroke-width:4;stroke-linecap:round;stroke-linejoin:round;}
	.st19{fill:none;stroke:#FFFFFF;stroke-width:4;stroke-linecap:round;stroke-linejoin:round;stroke-miterlimit:10;}
	.st20{opacity:0.33;fill:none;stroke:#FFFFFF;stroke-width:4;stroke-linecap:round;stroke-linejoin:round;stroke-miterlimit:10;}
	.st21{opacity:0.4;fill:#FFFFFF;}
	.st22{fill:none;stroke:#333333;stroke-width:3;stroke-linecap:round;stroke-linejoin:round;stroke-miterlimit:10;}
	.st23{opacity:0.75;fill:none;stroke:#FFFFFF;stroke-width:3;stroke-linejoin:round;stroke-miterlimit:10;}
	.st24{opacity:0.75;}
	.st25{fill:none;stroke:#FFFFFF;stroke-width:3;stroke-linecap:round;stroke-linejoin:round;}
	.st26{opacity:0.75;fill:none;stroke:#FFFFFF;stroke-width:3;stroke-linecap:round;stroke-linejoin:round;stroke-miterlimit:10;}
	.st27{fill:none;stroke:#FFFFFF;stroke-width:2;stroke-linecap:round;stroke-linejoin:round;}
	.st28{fill:none;stroke:#FFFFFF;stroke-width:2;stroke-linecap:round;stroke-linejoin:round;stroke-dasharray:3.3645,5.6075;}
	.st29{fill:none;stroke:#FFFFFF;stroke-width:2;stroke-linecap:round;stroke-linejoin:round;stroke-dasharray:3.0064,5.0106;}
	.st30{fill:none;stroke:#333333;stroke-width:3;stroke-linejoin:round;stroke-miterlimit:10;}
	.st31{opacity:0.7;fill:none;stroke:#FFFFFF;stroke-width:2;stroke-linecap:square;stroke-miterlimit:10;stroke-dasharray:2,4;}
	.st32{fill:none;stroke:#FFFFFF;stroke-width:3;stroke-linecap:round;stroke-linejoin:round;stroke-miterlimit:10;}
	.st33{fill:none;stroke:#FFFFFF;stroke-width:3;stroke-linejoin:round;}
	.st34{fill:none;stroke:#FFFFFF;stroke-width:2;stroke-linecap:square;stroke-miterlimit:10;stroke-dasharray:2,4;}
</style>
<path class="st0" d="M108,187.1h-4.3c0.4,0,0.8,0.4,0.8,0.9v10.9v48.7c0,0.5-0.3,0.9-0.8,0.9h-57c-0.4,0-0.8-0.4-0.8-0.9v4.5
	c0,0.5,0.4,0.9,0.8,0.9H108c0.4,0,0.8-0.4,0.8-0.9v-52.3V188C108.8,187.5,108.5,187.1,108,187.1z"/>
<g class="st1">
	<g>
		<path class="st2" d="M-143.4,60.1c-0.9-8.7-0.8-30,21.8-31.1c17.8-0.9,21.2,7,21.6,11.8"/>
		<g>
			<polygon class="st3" points="-140.9,59 -142.8,63.7 -145.9,59.7 			"/>
		</g>
		<g>
			<polygon class="st3" points="-102.5,40 -100.1,44.5 -97.4,40.2 			"/>
		</g>
	</g>
</g>
<line class="st4" x1="-114.3" y1="84.8" x2="-86.1" y2="84.8"/>
<g class="st1">
	<g>
		<line class="st2" x1="-80.2" y1="80.5" x2="-80.2" y2="89.2"/>
		<g>
			<polygon class="st3" points="-82.7,81.2 -80.2,76.8 -77.6,81.2 			"/>
		</g>
		<g>
			<polygon class="st3" points="-82.7,88.5 -80.2,92.9 -77.6,88.5 			"/>
		</g>
	</g>
</g>
<g class="st1">
	<g>
		<line class="st2" x1="-120.1" y1="80.5" x2="-120.1" y2="89.2"/>
		<g>
			<polygon class="st3" points="-122.7,81.2 -120.1,76.8 -117.6,81.2 			"/>
		</g>
		<g>
			<polygon class="st3" points="-122.7,88.5 -120.1,92.9 -117.6,88.5 			"/>
		</g>
	</g>
</g>
<line class="st5" x1="-86.1" y1="88.5" x2="-89.5" y2="88.5"/>
<line class="st5" x1="-110.9" y1="88.5" x2="-114.3" y2="88.5"/>
<line class="st5" x1="-100.1" y1="63.7" x2="-100.1" y2="74"/>
<g class="st1">
	<g>
		<line class="st6" x1="-94.9" y1="35.8" x2="-93.9" y2="35.8"/>
		<line class="st7" x1="-90" y1="35.8" x2="-62.2" y2="35.8"/>
		<polyline class="st6" points="-60.2,35.8 -59.2,35.8 -59.2,36.8 		"/>
		<line class="st8" x1="-59.2" y1="40.9" x2="-59.2" y2="99.5"/>
		<polyline class="st6" points="-59.2,101.5 -59.2,102.5 -60.2,102.5 		"/>
		<line class="st9" x1="-62.6" y1="102.5" x2="-65" y2="102.5"/>
		<line class="st6" x1="-66.2" y1="102.5" x2="-67.2" y2="102.5"/>
	</g>
</g>
<path class="st10" d="M-72.5,44.6h-55.7h-6.1c-0.5,0-0.9,0.4-0.9,0.9v11.4v45.7c0,0.5,0.4,0.9,0.9,0.9h68.3c0.5,0,0.9-0.4,0.9-0.9
	V56.9V45.5c0-0.5-0.4-0.9-0.9-0.9H-72.5z M-74.1,94.8h-52.5c-0.5,0-0.9-0.4-0.9-0.9V57.8c0-0.5,0.4-0.9,0.9-0.9h52.5
	c0.5,0,0.9,0.4,0.9,0.9v36.1C-73.2,94.4-73.6,94.8-74.1,94.8z"/>
<path class="st10" d="M-96.6,66h-7.4c-0.4,0-0.8-0.3-0.8-0.7l-0.7-5.9c-0.1-0.5,0.3-0.9,0.8-0.9h8.8c0.5,0,0.9,0.4,0.8,0.9l-0.7,5.9
	C-95.9,65.7-96.2,66-96.6,66z"/>
<line class="st5" x1="-150.8" y1="63.7" x2="-150.8" y2="92.9"/>
<line class="st5" x1="-138.8" y1="63.7" x2="-138.8" y2="92.9"/>
<line class="st5" x1="-146.9" y1="66.6" x2="-146.9" y2="89.7"/>
<line class="st5" x1="-142.8" y1="66.6" x2="-142.8" y2="89.7"/>
<line class="st11" x1="23.2" y1="66.5" x2="23.2" y2="92.2"/>
<line class="st11" x1="34.5" y1="66.5" x2="34.5" y2="92.2"/>
<line class="st11" x1="26.9" y1="69" x2="26.9" y2="89.4"/>
<line class="st11" x1="30.7" y1="69" x2="30.7" y2="89.4"/>
<line class="st12" x1="77.8" y1="86.4" x2="75.6" y2="86.4"/>
<line class="st12" x1="62.6" y1="86.4" x2="60.4" y2="86.4"/>
<line class="st13" x1="50.9" y1="81.3" x2="87.1" y2="81.3"/>
<path class="st14" d="M90.1,48.4H48h-4.6c-0.4,0-0.7,0.4-0.7,0.8v9.9V99c0,0.4,0.3,0.8,0.7,0.8H95c0.4,0,0.7-0.4,0.7-0.8V59.1v-9.9
	c0-0.4-0.3-0.8-0.7-0.8H90.1z M88.9,92.2H49.2c-0.4,0-0.7-0.3-0.7-0.8V59.9c0-0.4,0.3-0.8,0.7-0.8h39.6c0.4,0,0.7,0.3,0.7,0.8v31.5
	C89.5,91.9,89.2,92.2,88.9,92.2z"/>
<path class="st14" d="M72.6,70.7h-7.2c-0.6,0-1-0.4-1.1-0.9l-0.7-6.6c-0.1-0.6,0.4-1.1,1.1-1.1h8.7c0.6,0,1.1,0.5,1.1,1.1l-0.8,6.6
	C73.6,70.4,73.1,70.7,72.6,70.7z"/>
<g class="st1">
	<g>
		<line class="st6" x1="69.2" y1="181.5" x2="70.2" y2="181.5"/>
		<line class="st15" x1="74.3" y1="181.5" x2="108.8" y2="181.5"/>
		<polyline class="st6" points="110.8,181.5 111.8,181.5 111.8,182.5 		"/>
		<line class="st16" x1="111.8" y1="186.5" x2="111.8" y2="244.6"/>
		<polyline class="st6" points="111.8,246.7 111.8,247.7 110.8,247.7 		"/>
		<line class="st6" x1="106.8" y1="247.7" x2="105.8" y2="247.7"/>
	</g>
</g>
<line class="st17" x1="24" y1="197.3" x2="24" y2="228.6"/>
<g>
	<g>
		<path class="st18" d="M35.2,191.6c0.4-6.8,3.3-17.3,16.6-18c21.5-1.2,23.5,28.2,23.4,40.9"/>
		<g>
			<polygon class="st10" points="39.3,190.4 35.4,197.3 31.4,190.4 			"/>
		</g>
		<g>
			<polygon class="st10" points="71.3,213.1 75.1,220.1 79.3,213.4 			"/>
		</g>
	</g>
</g>
<line class="st17" x1="41" y1="197.3" x2="41" y2="228.6"/>
<line class="st17" x1="29.5" y1="200.4" x2="29.5" y2="225.3"/>
<line class="st17" x1="35.3" y1="200.4" x2="35.3" y2="225.3"/>
<g>
	<g>
		<line class="st18" x1="58.5" y1="223.5" x2="58.5" y2="236.3"/>
		<g>
			<polygon class="st10" points="54.5,224.7 58.5,217.8 62.5,224.7 			"/>
		</g>
		<g>
			<polygon class="st10" points="54.5,235.2 58.5,242.1 62.5,235.2 			"/>
		</g>
	</g>
</g>
<line class="st19" x1="84.5" y1="234.4" x2="81.7" y2="234.4"/>
<line class="st19" x1="68.6" y1="234.4" x2="65.8" y2="234.4"/>
<line class="st20" x1="65.8" y1="229.5" x2="84.5" y2="229.5"/>
<path class="st21" d="M98.3,187.1H51.8h-5.1c-0.4,0-0.8,0.4-0.8,0.9v10.9v48.7c0,0.5,0.3,0.9,0.8,0.9h57c0.4,0,0.8-0.4,0.8-0.9
	v-48.7v-10.9c0-0.5-0.3-0.9-0.8-0.9H98.3z M96.7,240.1H53.6c-0.4,0-0.7-0.4-0.7-0.8v-39.5c0-0.5,0.3-0.8,0.7-0.8h43.1
	c0.4,0,0.7,0.4,0.7,0.8v39.5C97.4,239.7,97.1,240.1,96.7,240.1z"/>
<path class="st21" d="M80.1,212.2h-9.9c-0.8,0-1.4-0.5-1.5-1.1l-1-8.3c-0.1-0.7,0.6-1.3,1.5-1.3h11.9c0.9,0,1.6,0.6,1.5,1.4l-1,8.3
	C81.5,211.7,80.9,212.2,80.1,212.2z"/>
<path class="st10" d="M113.3,188.8c-0.1-1.3-0.4-2.5-0.8-3.6l2.4-2.8l-3.2-4l-3.2,1.7c-1-0.7-2.2-1.3-3.4-1.6l-0.7-3.6h-5.2
	l-0.7,3.6c-1.2,0.4-2.3,0.9-3.4,1.6l-3.2-1.7l-3.2,4l2.4,2.8c-0.5,1.1-0.7,2.4-0.8,3.6l-3.4,1.5l1.1,5l3.7-0.1
	c0.6,1.1,1.4,2.1,2.3,2.9l-1,3.5l4.6,2.2l2.2-3c0.6,0.1,1.2,0.2,1.9,0.2c0.6,0,1.2-0.1,1.8-0.2l2.2,3l4.7-2.2l-0.9-3.5
	c0.9-0.8,1.7-1.8,2.3-2.9l3.7,0.1l1.2-5L113.3,188.8z M101.8,194.8c-2.8,0-5.1-2.3-5.1-5.1c0-2.8,2.3-5.1,5.1-5.1
	c2.8,0,5.1,2.3,5.1,5.1C106.9,192.5,104.6,194.8,101.8,194.8z"/>
<path class="st3" d="M78.5,330.8H64.5c-0.6,0-1.2-0.3-1.2-0.8l-1.4-12.5c-0.1-0.5,0.5-0.9,1.2-0.9H80c0.7,0,1.3,0.4,1.2,0.9
	l-1.5,12.5C79.6,330.5,79.1,330.8,78.5,330.8z"/>
<rect x="46.3" y="313.2" class="st22" width="50.3" height="48.2"/>
<rect x="40" y="313.2" class="st22" width="63.3" height="55.4"/>
<line class="st22" x1="75.8" y1="323.7" x2="96.6" y2="323.7"/>
<line class="st22" x1="47.2" y1="323.7" x2="68" y2="323.7"/>
<line class="st23" x1="34.7" y1="326.6" x2="34.7" y2="358"/>
<line class="st23" x1="26.7" y1="329.7" x2="26.7" y2="354.6"/>
<line class="st23" x1="30.8" y1="329.7" x2="30.8" y2="354.6"/>
<line class="st23" x1="22.8" y1="326.6" x2="22.8" y2="358"/>
<line class="st22" x1="58.8" y1="349.9" x2="84.3" y2="349.9"/>
<g class="st24">
	<g>
		<line class="st25" x1="89.7" y1="346" x2="89.7" y2="353.8"/>
		<g>
			<polygon class="st10" points="87.1,346.7 89.7,342.3 92.2,346.7 			"/>
		</g>
		<g>
			<polygon class="st10" points="87.1,353 89.7,357.4 92.2,353 			"/>
		</g>
	</g>
</g>
<g class="st24">
	<g>
		<line class="st25" x1="53.6" y1="346" x2="53.6" y2="353.8"/>
		<g>
			<polygon class="st10" points="51.1,346.7 53.6,342.3 56.1,346.7 			"/>
		</g>
		<g>
			<polygon class="st10" points="51.1,353 53.6,357.4 56.1,353 			"/>
		</g>
	</g>
</g>
<line class="st26" x1="84.3" y1="353.3" x2="81.2" y2="353.3"/>
<line class="st26" x1="61.9" y1="353.3" x2="58.8" y2="353.3"/>
<g class="st24">
	<g>
		<line class="st27" x1="77.5" y1="304.5" x2="79" y2="304.5"/>
		<line class="st28" x1="84.6" y1="304.5" x2="108.7" y2="304.5"/>
		<polyline class="st27" points="111.5,304.5 113,304.5 113,306 		"/>
		<line class="st29" x1="113" y1="311" x2="113" y2="364.7"/>
		<polyline class="st27" points="113,367.2 113,368.7 111.5,368.7 		"/>
		<line class="st27" x1="106.5" y1="368.7" x2="105" y2="368.7"/>
	</g>
</g>
<g>
	<g>
		<path class="st18" d="M30.3,324.1c-0.1-8.8,2.2-24.8,19.6-24.8c19.7,0,22.3,24,22.4,35.3"/>
		<g>
			<polygon class="st10" points="34.4,322.8 30.7,329.9 26.4,323.2 			"/>
		</g>
		<g>
			<polygon class="st10" points="68.3,333.4 72.2,340.4 76.3,333.5 			"/>
		</g>
	</g>
</g>
<g>
	<line class="st30" x1="270.4" y1="67.9" x2="270.4" y2="94.5"/>
	<line class="st30" x1="277.9" y1="70.6" x2="277.9" y2="91.6"/>
	<line class="st30" x1="274.1" y1="70.6" x2="274.1" y2="91.6"/>
	<line class="st30" x1="281.5" y1="67.9" x2="281.5" y2="94.5"/>
</g>
<g>
	<path class="st3" d="M234.2,66h11.3c0.5,0,0.9-0.3,1-0.7l1.1-11.1c0-0.4-0.4-0.8-1-0.8H233c-0.6,0-1,0.4-1,0.8l1.2,11.1
		C233.3,65.7,233.7,66,234.2,66z"/>
	
		<rect x="219.5" y="50.3" transform="matrix(-1 -4.350443e-11 4.350443e-11 -1 479.7545 143.5092)" class="st22" width="40.8" height="43"/>
	
		<rect x="214" y="50.3" transform="matrix(-1 -4.355151e-11 4.355151e-11 -1 479.4207 149.9921)" class="st22" width="51.3" height="49.5"/>
	<line class="st22" x1="236.3" y1="59.6" x2="219.5" y2="59.6"/>
	<line class="st22" x1="259.6" y1="59.6" x2="242.7" y2="59.6"/>
	<line class="st22" x1="247.1" y1="82.8" x2="230.7" y2="82.8"/>
</g>
<polygon class="st14" points="219.7,50.3 219.7,93.3 260.4,93.3 260.4,50.3 265.5,50.3 265.5,99.8 214.2,99.8 214.2,50.3 "/>
<polyline class="st31" points="211,63.1 199.5,63.1 199.5,31.7 206.4,31.7 "/>
<line class="st31" x1="210.2" y1="86.9" x2="199" y2="86.9"/>
<g>
	<path class="st10" d="M183.3,91.3l4-4.5l-5.5-1.1l1.5-5.3l5.6,2.1l-0.6-5.5h5.5l-0.3,5.4l5.3-2l1.6,5.3l-5.4,1.1l3.8,4.5l-4.4,3.2
		l-3.4-5l-3.4,5L183.3,91.3z"/>
</g>
<path class="st10" d="M207,30.7l1.1,4.7l3.4-0.1c0.6,1,1.3,1.9,2.2,2.7l-0.9,3.3l4.3,2.1l2-2.8c0.6,0.1,1.1,0.1,1.7,0.1
	c0.6,0,1.2-0.1,1.7-0.2l2,2.7l4.3-2.1l-0.9-3.3c0.9-0.8,1.6-1.7,2.2-2.7l3.4,0.1l1.1-4.7l-3.1-1.4c-0.1-1.2-0.3-2.3-0.8-3.4l2.2-2.6
	l-3-3.8l-3,1.6c-0.9-0.7-2-1.2-3.1-1.5l-0.6-3.3h-4.8l-0.6,3.3c-1.1,0.3-2.2,0.9-3.2,1.5l-3-1.6l-3,3.8l2.2,2.6
	c-0.4,1.1-0.7,2.2-0.8,3.4L207,30.7z M215.7,30.2c0-2.8,2.3-5.1,5.1-5.1c2.8,0,5.1,2.3,5.1,5.1c0,2.8-2.3,5.1-5.1,5.1
	C218,35.3,215.7,33.1,215.7,30.2z"/>
<polyline class="st31" points="97.7,68.2 109,68.2 109,34.3 101,34.3 "/>
<path class="st10" d="M100.7,32.3c-0.1-1-0.3-1.9-0.6-2.8l1.9-2.2l-2.5-3.1L97,25.5c-0.8-0.6-1.7-1-2.6-1.3l-0.5-2.8h-4l-0.5,2.8
	c-0.9,0.3-1.8,0.7-2.6,1.3l-2.5-1.3l-2.5,3.1l1.9,2.2c-0.4,0.9-0.6,1.8-0.6,2.8l-2.6,1.1l0.9,3.9l2.8-0.1c0.5,0.8,1.1,1.6,1.8,2.3
	L85,42.2l3.6,1.7l1.7-2.3c0.5,0.1,1,0.1,1.5,0.1c0.5,0,1,0,1.4-0.1l1.7,2.3l3.6-1.7l-0.7-2.8c0.7-0.6,1.3-1.4,1.8-2.3l2.8,0.1
	l0.9-3.9L100.7,32.3z M91.9,37.3c-2.4,0-4.3-1.9-4.3-4.3c0-2.4,1.9-4.3,4.3-4.3c2.4,0,4.3,1.9,4.3,4.3
	C96.1,35.4,94.2,37.3,91.9,37.3z"/>
<line class="st32" x1="230.1" y1="86.9" x2="232.7" y2="86.9"/>
<line class="st32" x1="245" y1="86.9" x2="247.5" y2="86.9"/>
<g>
	<g>
		<g>
			<line class="st25" x1="254" y1="77.6" x2="254" y2="96.1"/>
			<g>
				<polygon class="st10" points="251.5,78.4 254,74 256.6,78.4 				"/>
			</g>
			<g>
				<polygon class="st10" points="251.5,95.4 254,99.8 256.6,95.4 				"/>
			</g>
		</g>
	</g>
	<g>
		<g>
			<path class="st33" d="M274.2,64.5c0-9-1.7-29-17.4-29c-16.3,0-17.8,25-17.7,35.3"/>
			<g>
				<polygon class="st10" points="277.2,63.7 274,68.8 271.2,63.5 				"/>
			</g>
			<g>
				<polygon class="st10" points="236.1,70 239.2,75.1 242.1,69.8 				"/>
			</g>
		</g>
	</g>
</g>
<polyline class="st31" points="223.8,102.5 223.8,111.6 274.8,111.6 "/>
<circle class="st19" cx="278.3" cy="111.6" r="3.8"/>
<line class="st31" x1="97.7" y1="89.4" x2="111.9" y2="89.4"/>
<g>
	<path class="st10" d="M123.3,96.2l-3.1-4.5l-3,4.5l-3.9-2.9l3.4-4l-4.8-1l1.4-4.8l4.7,1.8l-0.3-4.8h4.9l-0.5,4.9l5-1.9l1.3,4.8
		l-4.9,1l3.6,4L123.3,96.2z"/>
</g>
<polyline class="st31" points="47.2,103.4 47.2,111.5 81.8,111.5 "/>
<circle class="st10" cx="86.6" cy="111.5" r="5.2"/>
<g>
	<g>
		<path class="st34" d="M30.9,61.4c0.9-9,4.7-25.4,20.6-25.4c14.2,0,17.1,12.8,17.6,20.5"/>
		<g>
			<polygon class="st10" points="35.1,60.5 30.7,67.1 27.1,60 			"/>
		</g>
		<g>
			<polygon class="st10" points="65,55.4 69.1,62.2 73,55.3 			"/>
		</g>
	</g>
</g>
<g>
	<g>
		<line class="st33" x1="53.7" y1="76.9" x2="53.7" y2="85.5"/>
		<g>
			<polygon class="st10" points="50.7,77.7 53.7,72.6 56.7,77.7 			"/>
		</g>
		<g>
			<polygon class="st10" points="50.7,84.7 53.7,89.8 56.7,84.7 			"/>
		</g>
	</g>
</g>
</svg>
