<?xml version="1.0" encoding="utf-8"?>
<!-- Generator: Adobe Illustrator 21.1.0, SVG Export Plug-In . SVG Version: 6.00 Build 0)  -->
<svg version="1.1" id="Layer_1" xmlns="http://www.w3.org/2000/svg" xmlns:xlink="http://www.w3.org/1999/xlink" x="0px" y="0px"
	 viewBox="0 0 140 140" style="enable-background:new 0 0 140 140;" xml:space="preserve">
<style type="text/css">
	.st0{opacity:0.15;}
	.st1{fill:#0C0C0C;stroke:#0C0C0C;stroke-width:3;stroke-miterlimit:10;}
	.st2{fill:none;stroke:#FFFFFF;stroke-width:3;stroke-linejoin:round;stroke-miterlimit:10;}
	.st3{fill:none;stroke:#FFFFFF;stroke-width:3;stroke-linecap:square;stroke-linejoin:round;stroke-miterlimit:10;}
	.st4{opacity:0.35;fill:none;stroke:#333333;stroke-width:3;stroke-miterlimit:10;}
	.st5{opacity:0.35;fill:#161615;}
	.st6{opacity:0.35;fill:#333333;}
	.st7{fill:none;stroke:#FFFFFF;stroke-width:2;stroke-linecap:square;stroke-miterlimit:10;stroke-dasharray:2,4;}
	.st8{fill:#FFFFFF;}
	.st9{fill:none;stroke:#FFFFFF;stroke-width:3;stroke-linejoin:round;}
</style>
<g class="st0">
	<rect x="22.1" y="68.1" class="st1" width="3.1" height="26.6"/>
	<rect x="33.7" y="68.1" class="st1" width="3.1" height="26.6"/>
	<rect x="25.9" y="70.7" class="st1" width="3.1" height="21.1"/>
	<rect x="29.8" y="70.7" class="st1" width="3.1" height="21.1"/>
	<rect x="74.4" y="87.2" class="st1" width="5" height="3.1"/>
	<rect x="61.5" y="87.2" class="st1" width="5" height="3.1"/>
	<path class="st1" d="M98.7,101.8V60.5V50.2c0-0.5-0.3-0.8-0.7-0.8h-5.1H49.3h-4.8c-0.4,0-0.7,0.4-0.7,0.8v10.3v41.3
		c0,0.5,0.3,0.8,0.7,0.8H98C98.4,102.6,98.7,102.2,98.7,101.8z M92.3,93.9c0,0.4-0.3,0.8-0.7,0.8h-41c-0.4,0-0.7-0.4-0.7-0.8V61.3
		c0-0.4,0.3-0.8,0.7-0.8h18.7l1.9,3.2l1.8-3.2h18.7c0.4,0,0.7,0.4,0.7,0.8V93.9z"/>
	<path class="st1" d="M64.8,64.9l0.8,7.6c0.1,0.6,0.6,1,1.2,1h8.4c0.6,0,1.2-0.4,1.2-1l0.9-7.6c0.1-0.7-0.5-1.2-1.2-1.2h-4.9H66
		C65.3,63.7,64.7,64.3,64.8,64.9z"/>
	<rect x="111.4" y="66" class="st1" width="2.1" height="4.1"/>
	<rect x="105.9" y="68.8" class="st1" width="4.1" height="2.1"/>
	<path class="st1" d="M106.4,33.8l-2.5-1.1c-0.1-1-0.3-2-0.7-2.9l1.9-2.2l-2.6-3.3l-2.6,1.4c-0.8-0.6-1.7-1-2.7-1.3l-0.5-2.9h-4.1
		L92,24.3c-1,0.3-1.9,0.7-2.7,1.3l-2.6-1.4l-2.6,3.2l1.9,2.2c-0.4,0.9-0.6,1.9-0.7,2.9l-2.7,1.2l0.9,4l2.9-0.1
		c0.5,0.9,1.1,1.7,1.9,2.3L87.6,43l3.7,1.8l1.8-2.4c0.5,0.1,1,0.1,1.5,0.1c0.5,0,1-0.1,1.5-0.1l1.7,2.4l3.7-1.8l-0.8-2.9
		c0.7-0.7,1.4-1.5,1.9-2.3l2.9,0.1l0.7-2.1h4.1v-2.1L106.4,33.8L106.4,33.8z M94.7,37.8c-2.4,0-4.4-2-4.4-4.4c0-2.4,2-4.4,4.4-4.4
		c2.4,0,4.4,2,4.4,4.4C99.1,35.9,97.2,37.8,94.7,37.8z"/>
	<rect x="111.4" y="59.8" class="st1" width="2.1" height="4.1"/>
	<rect x="99.7" y="68.8" class="st1" width="4.1" height="2.1"/>
	<rect x="111.4" y="53.6" class="st1" width="2.1" height="4.1"/>
	<rect x="111.4" y="47.4" class="st1" width="2.1" height="4.1"/>
	<rect x="111.4" y="35" class="st1" width="2.1" height="4.1"/>
	<rect x="111.4" y="41.2" class="st1" width="2.1" height="4.1"/>
	<polygon class="st1" points="99.4,111.9 94.5,113.7 95,108.9 90.1,108.9 90.4,113.6 85.7,111.9 84.6,115.6 80.6,115.6 80.6,117.6 
		84.7,117.6 84.7,116.7 89.1,117.5 85.7,121.5 89.6,124.3 92.6,119.9 95.6,124.3 99.4,121.5 95.9,117.5 100.7,116.6 	"/>
	<rect x="62" y="115.6" class="st1" width="4.1" height="2.1"/>
	<rect x="55.8" y="115.6" class="st1" width="4.1" height="2.1"/>
	<rect x="68.2" y="115.6" class="st1" width="4.1" height="2.1"/>
	<rect x="49.5" y="115.6" class="st1" width="4.1" height="2.1"/>
	<rect x="74.4" y="115.6" class="st1" width="4.1" height="2.1"/>
	<rect x="47.4" y="105.3" class="st1" width="2.1" height="4.1"/>
	<rect x="47.4" y="111.5" class="st1" width="2.1" height="4.1"/>
	<path class="st1" d="M53,37.5c0.6,0,1.1,0,1.7,0.1l1,0.1l0.2-2.1l-1-0.1c-0.6,0-1.2-0.1-1.8-0.1l-1.3,0l0,2.1L53,37.5z"/>
	<path class="st1" d="M60.3,39l0.9,0.4l0.9-1.9l-0.9-0.4c-0.7-0.3-1.3-0.6-2.1-0.8l-1-0.3l-0.6,2l1,0.3C59.1,38.5,59.7,38.7,60.3,39
		z"/>
	<path class="st1" d="M67.1,45.6c0.3,0.6,0.6,1.2,0.8,1.8l0.4,1l1.9-0.8l-0.4-1c-0.3-0.7-0.6-1.3-0.9-2l-0.5-0.9l-1.8,1L67.1,45.6z"
		/>
	<path class="st1" d="M64.9,42.4l0.7,0.8l1.5-1.4L66.4,41c-0.5-0.6-1-1.1-1.6-1.6l-0.8-0.7l-1.4,1.6l0.8,0.7
		C64,41.5,64.5,41.9,64.9,42.4z"/>
	<path class="st1" d="M46.9,38.5c0.6-0.2,1.2-0.4,1.9-0.5l1-0.2l-0.4-2l-1,0.2c-0.7,0.2-1.4,0.3-2.1,0.6l-1,0.3l0.7,2L46.9,38.5z"/>
	<path class="st1" d="M33.6,56.9c0.1-0.6,0.3-1.3,0.5-2l0.3-1l-2-0.5l-0.3,1c-0.2,0.7-0.3,1.4-0.5,2.1l-0.2,1l2,0.4L33.6,56.9z"/>
	<path class="st1" d="M37.5,42.8c-0.4,0.6-0.9,1.1-1.3,1.8l-0.6,0.9l1.7,1.1l0.6-0.9c0.4-0.6,0.8-1.1,1.2-1.6l0.6-0.8L38.1,42
		L37.5,42.8z"/>
	<path class="st1" d="M35.3,51c0.2-0.6,0.5-1.2,0.8-1.9l0.4-0.9l-1.9-0.9l-0.4,0.9c-0.3,0.7-0.6,1.3-0.8,2l-0.4,1l1.9,0.7L35.3,51z"
		/>
	<path class="st1" d="M43.2,37.8l-0.9,0.6c-0.6,0.4-1.2,0.8-1.8,1.3l-0.8,0.7l1.3,1.6l0.8-0.7c0.5-0.4,1-0.8,1.6-1.1l0.9-0.6
		L43.2,37.8z"/>
	<path class="st1" d="M31.4,68.7l4.6-6.9l-3.1-0.2c0-0.3,0.1-0.5,0.1-0.8l0.1-1L31,59.6l-0.1,1c0,0.3-0.1,0.6-0.1,0.9l-3.1-0.2
		L31.4,68.7z"/>
</g>
<line class="st2" x1="23.2" y1="66.5" x2="23.2" y2="92.2"/>
<line class="st2" x1="34.5" y1="66.5" x2="34.5" y2="92.2"/>
<line class="st2" x1="26.9" y1="69" x2="26.9" y2="89.4"/>
<line class="st2" x1="30.7" y1="69" x2="30.7" y2="89.4"/>
<line class="st3" x1="75.5" y1="86.4" x2="73.7" y2="86.4"/>
<line class="st3" x1="63.1" y1="86.4" x2="61.3" y2="86.4"/>
<line class="st4" x1="50.9" y1="81.3" x2="87.1" y2="81.3"/>
<path class="st5" d="M90.1,48.4H48h-4.6c-0.4,0-0.7,0.4-0.7,0.8v9.9V99c0,0.4,0.3,0.8,0.7,0.8H95c0.4,0,0.7-0.4,0.7-0.8V59.1v-9.9
	c0-0.4-0.3-0.8-0.7-0.8H90.1z M88.9,92.2H49.2c-0.4,0-0.7-0.3-0.7-0.8V59.9c0-0.4,0.3-0.8,0.7-0.8h39.6c0.4,0,0.7,0.3,0.7,0.8v31.5
	C89.5,91.9,89.2,92.2,88.9,92.2z"/>
<path class="st6" d="M73,71.8h-8.1c-0.6,0-1.1-0.4-1.2-1L63,63.4c-0.1-0.6,0.5-1.2,1.2-1.2h9.7c0.7,0,1.3,0.6,1.2,1.2l-0.8,7.3
	C74.1,71.3,73.6,71.8,73,71.8z"/>
<polyline class="st7" points="97.7,68.2 109,68.2 109,34.3 101,34.3 "/>
<path class="st8" d="M100.7,32.3c-0.1-1-0.3-1.9-0.6-2.8l1.9-2.2l-2.5-3.1L97,25.5c-0.8-0.6-1.7-1-2.6-1.3l-0.5-2.8h-4l-0.5,2.8
	c-0.9,0.3-1.8,0.7-2.6,1.3l-2.5-1.3l-2.5,3.1l1.9,2.2c-0.4,0.9-0.6,1.8-0.6,2.8l-2.6,1.1l0.9,3.9l2.8-0.1c0.5,0.8,1.1,1.6,1.8,2.3
	L85,42.2l3.6,1.7l1.7-2.3c0.5,0.1,1,0.1,1.5,0.1c0.5,0,1,0,1.4-0.1l1.7,2.3l3.6-1.7l-0.7-2.8c0.7-0.6,1.3-1.4,1.8-2.3l2.8,0.1
	l0.9-3.9L100.7,32.3z M91.9,37.3c-2.4,0-4.3-1.9-4.3-4.3c0-2.4,1.9-4.3,4.3-4.3c2.4,0,4.3,1.9,4.3,4.3
	C96.1,35.4,94.2,37.3,91.9,37.3z"/>
<g>
	<path class="st8" d="M92.7,120.8l-2.9-4.3l-2.9,4.3l-3.7-2.7l3.2-3.8l-4.6-0.9l1.4-4.6l4.5,1.7l-0.2-4.6h4.7l-0.5,4.7l4.8-1.8
		l1.3,4.6l-4.7,0.9l3.4,3.8L92.7,120.8z"/>
</g>
<polyline class="st7" points="47.2,103.4 47.2,113.3 81.8,113.3 "/>
<g>
	<g>
		<path class="st7" d="M30.9,61.4c0.9-9,4.7-25.4,20.6-25.4c14.2,0,17.1,12.8,17.6,20.5"/>
		<g>
			<polygon class="st8" points="35.1,60.5 30.7,67.1 27.1,60 			"/>
		</g>
		<g>
			<polygon class="st8" points="65,55.4 69.1,62.2 73,55.3 			"/>
		</g>
	</g>
</g>
<g>
	<g>
		<line class="st9" x1="84.2" y1="76.9" x2="84.2" y2="85.5"/>
		<g>
			<polygon class="st8" points="81.3,77.7 84.2,72.6 87.2,77.7 			"/>
		</g>
		<g>
			<polygon class="st8" points="81.3,84.7 84.2,89.8 87.2,84.7 			"/>
		</g>
	</g>
</g>
</svg>
