<?xml version="1.0" encoding="utf-8"?>
<!-- Generator: Adobe Illustrator 21.1.0, SVG Export Plug-In . SVG Version: 6.00 Build 0)  -->
<svg version="1.1" id="Layer_1" xmlns="http://www.w3.org/2000/svg" xmlns:xlink="http://www.w3.org/1999/xlink" x="0px" y="0px"
	 viewBox="0 0 140 140" style="enable-background:new 0 0 140 140;" xml:space="preserve">
<style type="text/css">
	.st0{opacity:0.15;}
	.st1{fill:none;stroke:#F7F7F7;stroke-width:3;stroke-miterlimit:10;}
	.st2{fill:#F7F7F7;}
</style>
<path class="st0" d="M106.5,58.8h-73c-1.1,0-2-0.9-2-2V50c0-1.1,0.9-2,2-2h73c1.1,0,2,0.9,2,2v6.8C108.5,57.9,107.6,58.8,106.5,58.8
	z"/>
<path class="st0" d="M106.5,84.9h-73c-1.1,0-2-0.9-2-2v-6.8c0-1.1,0.9-2,2-2h73c1.1,0,2,0.9,2,2v6.8C108.5,84,107.6,84.9,106.5,84.9
	z"/>
<path class="st0" d="M106.5,111h-73c-1.1,0-2-0.9-2-2v-6.8c0-1.1,0.9-2,2-2h73c1.1,0,2,0.9,2,2v6.8C108.5,110.1,107.6,111,106.5,111
	z"/>
<path class="st1" d="M106.5,48.8h-73c-1.1,0-2-0.9-2-2V40c0-1.1,0.9-2,2-2h73c1.1,0,2,0.9,2,2v6.8C108.5,47.9,107.6,48.8,106.5,48.8
	z"/>
<path class="st2" d="M96.5,48.8h-63c-1.1,0-2-0.7-2-1.5v-7.7c0-0.8,0.9-1.5,2-1.5h63V48.8z"/>
<path class="st2" d="M71.5,75.2h-38c-1.1,0-2-0.7-2-1.5v-7.7c0-0.8,0.9-1.5,2-1.5h38V75.2z"/>
<path class="st2" d="M86.5,100.8h-53c-1.1,0-2-0.7-2-1.5v-7.7c0-0.8,0.9-1.5,2-1.5h53V100.8z"/>
<path class="st1" d="M106.5,74.9h-73c-1.1,0-2-0.9-2-2v-6.8c0-1.1,0.9-2,2-2h73c1.1,0,2,0.9,2,2v6.8C108.5,74,107.6,74.9,106.5,74.9
	z"/>
<path class="st1" d="M106.5,101h-73c-1.1,0-2-0.9-2-2v-6.8c0-1.1,0.9-2,2-2h73c1.1,0,2,0.9,2,2V99C108.5,100.1,107.6,101,106.5,101z
	"/>
</svg>
